<svg id="Capa_1" enable-background="new 0 0 497 497" height="512" viewBox="0 0 497 497" width="512" xmlns="http://www.w3.org/2000/svg"><g><path d="m337.898 497h41.84c0-100.696-63.498-119.83-63.498-119.83h-19.313z" fill="#bc9bdd"/><path d="m259.998 377.17 40.971 119.83h36.929c0-45.263-25.531-94.309-40.971-119.83z" fill="#ffb5ec"/><path d="m159.102 497h-41.84c0-100.696 63.498-119.83 63.498-119.83h19.313z" fill="#bc9bdd"/><path d="m237.002 377.17-40.971 119.83h-36.929c0-45.263 25.531-94.309 40.971-119.83z" fill="#ffb5ec"/><path d="m300.969 497h-104.938c0-45.263 25.531-94.309 40.971-119.83h22.996c15.44 25.521 40.971 74.567 40.971 119.83z" fill="#50e1cd"/><path d="m270.305 444.738-14.115-62.128 2.617-11.52c.918-4.039-1.613-8.057-5.652-8.975-1.625-.368-3.241-.172-4.658.447-1.416-.618-3.031-.814-4.654-.447-4.039.918-6.57 4.936-5.652 8.975l2.617 11.52-14.115 62.128c-.918 4.039 1.613 8.057 5.652 8.975.56.127 1.118.188 1.668.188 3.424 0 6.516-2.36 7.307-5.841l7.179-31.598 7.178 31.598c.791 3.48 3.882 5.841 7.307 5.841.55 0 1.109-.062 1.668-.188 4.041-.919 6.571-4.936 5.653-8.975z" fill="#fff"/><path d="m441.633 227.228c0 72.729-86.469 162.162-193.133 162.162s-193.133-89.433-193.133-162.162 86.468-227.228 193.133-227.228 193.133 154.5 193.133 227.228z" fill="#b08bd7"/><path d="m130.517 202.819c0-92.592 55.284-171.513 132.823-201.827-4.898-.653-9.847-.992-14.84-.992-106.665 0-193.133 154.499-193.133 227.228 0 68.773 77.322 152.467 175.922 161.37-60.277-37.318-100.772-106.539-100.772-185.779z" fill="#a47cd1"/><path d="m108.549 205.58c11.388-40.901 49.275-69.826 92.732-69.826h94.438c43.456 0 81.344 28.924 92.732 69.826l-36.036 33.229h-211.251z" fill="#ffb5ec"/><path d="m130.517 202.819c0-13.634 1.212-26.967 3.504-39.896-11.907 11.508-20.862 26.1-25.472 42.658l23.529 23.972c-1.026-8.761-1.561-17.681-1.561-26.734z" fill="#ffa2e7"/><path d="m391.725 227.229c0 21.399-15.71 49.365-40.043 71.263-28.954 26.05-66.562 40.991-103.182 40.991s-74.227-14.941-103.182-40.991c-24.333-21.898-40.043-49.864-40.043-71.263 0-2.904.26-6.178.779-9.791.589-4.052 1.417-8.005 2.495-11.857 36.17 3.793 110.458 5.589 139.951-38.047 29.493 43.636 103.781 41.84 139.951 38.047 1.078 3.853 1.906 7.805 2.495 11.857.519 3.612.779 6.886.779 9.791z" fill="#ffdcce"/><g><g><path d="m175.849 257.674c-4.142 0-7.5-3.357-7.5-7.5v-13.96c0-4.143 3.358-7.5 7.5-7.5s7.5 3.357 7.5 7.5v13.96c0 4.142-3.358 7.5-7.5 7.5z" fill="#423e4f"/></g><g><path d="m321.151 257.674c-4.142 0-7.5-3.357-7.5-7.5v-13.96c0-4.143 3.358-7.5 7.5-7.5s7.5 3.357 7.5 7.5v13.96c0 4.142-3.358 7.5-7.5 7.5z" fill="#423e4f"/></g><g><path d="m248.5 265.984c-9.508 0-18.55-4.118-24.808-11.298-2.722-3.123-2.396-7.86.726-10.582 3.122-2.721 7.86-2.396 10.582.727 3.408 3.91 8.329 6.153 13.5 6.153s10.092-2.243 13.5-6.153c2.721-3.123 7.458-3.447 10.582-.727 3.123 2.722 3.448 7.459.726 10.582-6.257 7.18-15.3 11.298-24.808 11.298z" fill="#423e4f"/></g></g><path d="m130.569 207.153c-8.208-.309-15.697-.91-22.02-1.573-1.078 3.853-1.906 7.805-2.495 11.857-.519 3.613-.779 6.887-.779 9.791 0 21.399 15.71 49.365 40.043 71.263 3.485 3.135 7.097 6.105 10.816 8.911-15.688-29.778-24.886-63.906-25.565-100.249z" fill="#ffcabd"/></g></svg>