<svg id="Capa_1" enable-background="new 0 0 497 497" height="512" viewBox="0 0 497 497" width="512" xmlns="http://www.w3.org/2000/svg"><g><path d="m431.63 138.172c11.318 25.108 17.622 52.943 17.622 82.223h-401.503c0-29.281 6.305-57.115 17.622-82.223l23.457-25.835h312.85z" fill="#5c586f"/><g><circle cx="414.875" cy="230.217" fill="#ffbe9c" r="46.979"/></g><path d="m299.684 344.811h-102.368l.582 76.095 25.252 76.094h50.7l21.908-76.094z" fill="#d8d8d8"/><circle cx="248.5" cy="220.395" fill="#ffd3bc" r="166.375"/><path d="m357.297 364.881c6.598-7.997.854-20.07-9.514-20.07h-58.181c-14.268 0-25.834 11.566-25.834 25.834v126.355h45.799l45.455-54.982c-7.219-21.863-17.876-38.325-27.324-49.777 13.559-9.885 23.068-19.444 29.599-27.36z" fill="#ff889e"/><path d="m209.388 382.135c-54.206-27.047-91.585-84.227-91.585-150.396 0-34.268 10.031-66.121 27.226-92.631h-41.716c-7.685 13.696-13.482 28.591-17.056 44.332-1.364-.12-2.738-.202-4.132-.202-25.946 0-46.979 21.033-46.979 46.979s21.033 46.979 46.979 46.979c3.289 0 6.498-.341 9.596-.985 18.667 52.423 62.886 92.724 117.667 105.924z" fill="#ffbe9c"/><path d="m197.316 344.811h-58.181c-10.368 0-16.112 12.073-9.514 20.07 6.531 7.916 16.04 17.475 29.599 27.36-9.449 11.452-20.105 27.913-27.324 49.777l45.455 54.982h45.799v-126.354c0-14.268-11.566-25.835-25.834-25.835z" fill="#ff889e"/><path d="m441.142 113.419c-37.684-67.596-109.911-113.419-192.642-113.419s-154.958 45.823-192.642 113.419c-6.42 11.515 2.003 25.689 15.188 25.689h354.91c13.183.001 21.606-14.173 15.186-25.689z" fill="#50e1cd"/><g><path d="m241 139.109v-31.726c0-4.143 3.358-7.5 7.5-7.5s7.5 3.357 7.5 7.5v31.726z" fill="#00d1b3"/></g><g><path d="m178.341 139.109v-31.726c0-4.143 3.358-7.5 7.5-7.5s7.5 3.357 7.5 7.5v31.726z" fill="#00d1b3"/></g><g><path d="m115.682 139.109v-31.726c0-4.143 3.358-7.5 7.5-7.5s7.5 3.357 7.5 7.5v31.726z" fill="#00d1b3"/></g><g><path d="m381.318 139.109v-31.726c0-4.143-3.358-7.5-7.5-7.5s-7.5 3.357-7.5 7.5v31.726h-47.659v-31.726c0-4.143-3.358-7.5-7.5-7.5s-7.5 3.357-7.5 7.5v31.726z" fill="#00d1b3"/></g><path d="m152.264 466.655c5.742-50.919 21.064-101.644 50.863-121.18-1.869-.43-3.812-.664-5.811-.664h-58.181c-10.368 0-16.112 12.072-9.514 20.07 6.531 7.916 16.04 17.475 29.599 27.359-9.448 11.452-20.105 27.914-27.324 49.777z" fill="#ff748f"/><path d="m177.351 442.018v54.982h-54c0-21.146 3.398-39.435 8.545-54.982z" fill="#ffd3bc"/><path d="m363.568 497h-54v-54.982h45.455c5.146 15.547 8.545 33.836 8.545 54.982z" fill="#ffd3bc"/><g><g><g><ellipse cx="147.186" cy="249.071" fill="#ff9db0" rx="37.383" ry="29.77"/></g><g><ellipse cx="349.814" cy="249.071" fill="#ff9db0" rx="37.383" ry="29.77"/></g></g></g><g><g><path d="m168.973 227.914c-4.142 0-7.5-3.357-7.5-7.5v-15.282c0-4.143 3.358-7.5 7.5-7.5s7.5 3.357 7.5 7.5v15.282c0 4.143-3.358 7.5-7.5 7.5z" fill="#423e4f"/></g><g><path d="m328.027 227.914c-4.142 0-7.5-3.357-7.5-7.5v-15.282c0-4.143 3.358-7.5 7.5-7.5s7.5 3.357 7.5 7.5v15.282c0 4.143-3.358 7.5-7.5 7.5z" fill="#423e4f"/></g><g><path d="m248.5 237.011c-10.203 0-19.906-4.419-26.621-12.124-2.722-3.123-2.396-7.86.726-10.582 3.122-2.721 7.86-2.396 10.582.727 3.866 4.436 9.447 6.979 15.313 6.979s11.447-2.544 15.313-6.979c2.721-3.123 7.458-3.447 10.582-.727 3.123 2.722 3.448 7.459.726 10.582-6.715 7.705-16.418 12.124-26.621 12.124z" fill="#423e4f"/></g></g><circle cx="91.726" cy="276.211" fill="#fbe29f" r="21.59"/><path d="m102.646 135.996c0-52.222 36.086-102.372 89.247-128.624-58.349 15.52-107.261 54.435-136.035 106.047-6.42 11.515 2.003 25.689 15.188 25.689h31.649c-.029-1.035-.049-2.072-.049-3.112z" fill="#00d1b3"/><path d="m155.841 442.018h-23.945c-5.147 15.548-8.545 33.836-8.545 54.982h26.579c.761-18.031 2.657-36.848 5.911-54.982z" fill="#ffbe9c"/></g></svg>