<svg id="Capa_1" enable-background="new 0 0 497 497" height="512" viewBox="0 0 497 497" width="512" xmlns="http://www.w3.org/2000/svg"><g><path d="m248.5 356.85 19.627 72.648-19.627 67.502h-140.41c0-96.82 63.6-140.15 63.6-140.15z" fill="#9ae0eb"/><path d="m388.91 497h-140.41v-140.15h76.81s63.6 43.33 63.6 140.15z" fill="#64d1e1"/><path d="m216.33 2.77c-87.76 15.24-154.5 91.77-154.5 183.9 0 103.09 83.58 186.66 186.67 186.66s186.67-83.57 186.67-186.66c0-92.13-66.74-168.66-154.5-183.9l-32.17 14.799z" fill="#ff889e"/><path d="m134.522 167.943c0-69.077 32.299-129.845 81.183-165.058-87.45 15.495-153.875 91.875-153.875 183.785 0 89.988 63.688 165.097 148.445 182.735-50.316-41.294-75.753-123.998-75.753-201.462z" fill="#ff748f"/><path d="m107.81 203.32c8.26 70.29 68.21 125.01 140.69 125.01 78.11 0 141.67-63.55 141.67-141.66l-55.396-28.289h-182.298z" fill="#fed2a4"/><path d="m301.38 72.99-35.88 32.18c-9.67 8.67-24.33 8.67-34 0l-35.88-32.18c-6.47-5.81-2.36-16.54 6.33-16.54h14.38v-53.68c10.45-1.82 21.2-2.77 32.17-2.77s21.72.95 32.17 2.77v53.68h14.38c8.69 0 12.8 10.73 6.33 16.54z" fill="#d8d8d8"/><path d="m134.63 176.336-26.82 26.984c4.396 37.406 23.432 70.402 51.203 93.088-15.257-36.358-23.409-78.717-24.383-120.072z" fill="#ffbd86"/><path d="m390.17 186.67c0-.17-.01-.34-.01-.5-.09-25.89-21.34-46.73-47.23-46.73h-188.86c-25.89 0-47.14 20.84-47.23 46.73 0 .16-.01.33-.01.5 0 5.63.33 11.19.98 16.65 14.25-3.57 39.36-12.42 59.94-33.11 0 0 38.791 36.081 109.703 36.104 6.566.002 10.289-7.444 6.416-12.746-4.443-6.082-8.469-14.137-8.469-23.358 0 0 53.29 22.36 114.77 16.46z" fill="#5c586f"/><g><g><path d="m174.055 251.504c-4.142 0-7.5-3.357-7.5-7.5v-14.304c0-4.143 3.358-7.5 7.5-7.5s7.5 3.357 7.5 7.5v14.305c0 4.142-3.358 7.499-7.5 7.499z" fill="#423e4f"/></g><g><path d="m322.945 251.504c-4.142 0-7.5-3.357-7.5-7.5v-14.304c0-4.143 3.358-7.5 7.5-7.5s7.5 3.357 7.5 7.5v14.305c0 4.142-3.358 7.499-7.5 7.499z" fill="#423e4f"/></g><g><path d="m248.5 260.02c-9.69 0-18.905-4.196-25.281-11.514-2.721-3.123-2.396-7.86.727-10.582s7.86-2.396 10.582.727c3.527 4.048 8.62 6.369 13.973 6.369s10.446-2.321 13.973-6.369c2.722-3.123 7.459-3.448 10.582-.727 3.123 2.722 3.448 7.459.727 10.582-6.378 7.318-15.593 11.514-25.283 11.514z" fill="#423e4f"/></g></g><path d="m295.314 430.412c-4.842-34.383-17.794-59.865-17.924-60.118-3.783-7.358-.899-16.402 6.453-20.198 7.351-3.797 16.382-.934 20.191 6.411.626 1.208 15.396 30.023 20.986 69.722 1.155 8.203-4.559 15.79-12.762 16.945-8.218 1.155-15.79-4.571-16.944-12.762z" fill="#fff"/><path d="m201.686 430.412c4.842-34.383 17.794-59.865 17.924-60.118 3.783-7.358.899-16.402-6.453-20.198-7.351-3.797-16.382-.934-20.191 6.411-.626 1.208-15.396 30.023-20.986 69.722-1.155 8.203 4.559 15.79 12.762 16.945 8.218 1.155 15.79-4.571 16.944-12.762z" fill="#fff"/><g><g><path d="m333.82 497v-39.32c0-4.143 3.358-7.5 7.5-7.5s7.5 3.357 7.5 7.5v39.32z" fill="#3ccadd"/></g></g><g><path d="m148.18 497v-39.32c0-4.143 3.358-7.5 7.5-7.5s7.5 3.357 7.5 7.5v39.32z" fill="#64d1e1"/></g><path d="m134.522 167.943c0-8.436.484-16.748 1.419-24.905-16.987 7.037-29.033 23.653-29.101 43.132 0 .16-.01.33-.01.5 0 5.63.33 11.19.98 16.65 7.127-1.786 16.97-4.892 27.605-10.14-.593-8.434-.893-16.866-.893-25.237z" fill="#4f4c5f"/></g></svg>