<svg id="Capa_1" enable-background="new 0 0 497 497" height="512" viewBox="0 0 497 497" width="512" xmlns="http://www.w3.org/2000/svg"><g><path d="m476.921 57.935c-4.596-4.197-7.09-10.218-6.809-16.436l.001-.013c.557-12.319-9.582-22.458-21.901-21.901l-.013.001c-6.217.281-12.238-2.213-16.435-6.809-8.317-9.107-22.659-9.107-30.976 0-4.197 4.596-10.218 7.09-16.436 6.809l-.013-.001c-12.319-.557-22.458 9.582-21.901 21.901l.001.013c.281 6.217-2.213 12.238-6.809 16.435-9.107 8.317-9.107 22.659 0 30.976 4.596 4.197 7.09 10.218 6.809 16.436l-.001.013c-.557 12.319 9.582 22.458 21.901 21.901l.013-.001c6.217-.281 12.238 2.213 16.435 6.809 8.317 9.107 22.659 9.107 30.976 0 4.197-4.596 10.218-7.09 16.436-6.809l.013.001c12.319.557 22.458-9.582 21.901-21.901l-.001-.013c-.281-6.217 2.213-12.238 6.809-16.435 9.107-8.317 9.107-22.659 0-30.976z" fill="#ffb5ec"/><path d="m424.366 280.94c-28.806 82.541-107.45 141.928-199.688 141.928-116.582 0-211.429-94.856-211.429-211.439 0-45.395 14.378-87.489 38.821-121.977l192.018 68.44z" fill="#d8d8d8"/><path d="m224.678 472.572-76.988 24.428h-52.217c0-89.095 58.524-128.967 58.524-128.967h141.363s58.524 39.872 58.524 128.967h-52.218z" fill="#b08bd7"/><circle cx="224.678" cy="373.288" fill="#c7856a" r="48.163"/><path d="m373.146 122.717c0-47.183 29.562-87.455 71.172-103.323-4.787-.676-9.241-2.988-12.555-6.617-8.317-9.107-22.659-9.107-30.976 0-4.197 4.596-10.218 7.09-16.436 6.809h-.013c-12.319-.558-22.458 9.582-21.901 21.9l.001.013c.281 6.217-2.213 12.239-6.809 16.436-9.107 8.317-9.107 22.659 0 30.976 4.596 4.197 7.09 10.218 6.809 16.436l-.001.013c-.373 8.256 4.061 15.527 10.733 19.262-.01-.635-.024-1.269-.024-1.905z" fill="#ffa2e7"/><path d="m435.948 203.268-191.86-45.376-135.576-123.047c33.357-22.014 73.289-34.845 116.166-34.845 113.846 0 206.967 90.454 211.27 203.268z" fill="#b08bd7"/><path d="m257.158 2.501c-10.592-1.64-21.437-2.501-32.48-2.501-42.877 0-82.809 12.832-116.166 34.845l26.556 24.102c38.523-28.793 83.477-48.053 122.09-56.446z" fill="#a47cd1"/><path d="m436.107 211.429c0 24.344-4.135 47.736-11.741 69.511l-372.296-191.488c15.251-21.508 34.409-40.061 56.442-54.607l327.436 168.423c.109 2.707.159 5.424.159 8.161z" fill="#ffb5ec"/><path d="m301.666 473.221v23.779h-153.976v-23.779c0-13.843 11.225-25.078 25.078-25.078h103.82c13.853.001 25.078 11.236 25.078 25.078z" fill="#ffb5ec"/><g><path d="m129.049 456.909c0-37.561 18.618-70.483 46.554-88.876h-21.606s-58.524 39.872-58.524 128.967h33.745c-.741-12.345-.169-25.885-.169-40.091z" fill="#a47cd1"/></g><path d="m345.514 333.505c-33.96-65.946-148.63-117.196-178.096-184.796l.02.079s-75.95 2.49-111.2 96.44v.01c15.7 78.68 85.14 137.97 168.44 137.97 47.12 0 89.8-18.97 120.84-49.7l-.002-.005c0 .001-.001.001-.002.002z" fill="#da9d81"/><ellipse cx="129.049" cy="273.202" fill="#fff" rx="37.668" ry="29.997"/><g><g><path d="m224.678 281.619c-9.752 0-19.027-4.224-25.444-11.588-2.721-3.123-2.396-7.86.727-10.582s7.86-2.395 10.582.727c3.568 4.095 8.72 6.443 14.136 6.443 5.415 0 10.568-2.349 14.137-6.443 2.722-3.123 7.459-3.447 10.582-.727 3.123 2.722 3.448 7.46.726 10.582-6.42 7.365-15.694 11.588-25.446 11.588z" fill="#423e4f"/></g><g><path d="m151.001 251.825c-4.142 0-7.5-3.357-7.5-7.5v-15.398c0-4.143 3.358-7.5 7.5-7.5s7.5 3.357 7.5 7.5v15.398c0 4.143-3.357 7.5-7.5 7.5z" fill="#423e4f"/></g></g><g fill="#423e4f"><path d="m253.882 22.6c-3.536-2.16-8.151-1.046-10.311 2.488l-6.205 10.153c-2.16 3.534-1.046 8.15 2.488 10.311 1.221.746 2.571 1.102 3.904 1.102 2.526 0 4.993-1.276 6.407-3.59l6.205-10.153c2.16-3.535 1.046-8.151-2.488-10.311z"/><path d="m359.557 87.186c-3.535-2.161-8.15-1.047-10.311 2.488l-6.206 10.152c-2.16 3.534-1.046 8.15 2.488 10.311 1.221.746 2.571 1.102 3.904 1.102 2.526 0 4.993-1.276 6.407-3.59l6.206-10.152c2.16-3.535 1.046-8.151-2.488-10.311z"/><path d="m321.429 86.144c-3.535-2.16-8.15-1.046-10.311 2.488-1.965 3.215-6.18 4.231-9.395 2.268-3.216-1.966-4.233-6.181-2.268-9.396 2.16-3.534 1.046-8.15-2.488-10.311-3.535-2.161-8.15-1.046-10.311 2.488-1.965 3.215-6.181 4.231-9.395 2.268-3.216-1.966-4.233-6.181-2.268-9.396 2.16-3.534 1.046-8.15-2.488-10.311s-8.15-1.046-10.311 2.488c-6.278 10.272-3.029 23.737 7.245 30.017 3.545 2.167 7.47 3.198 11.35 3.198 1.244 0 2.482-.115 3.702-.324 1.528 4.86 4.731 9.216 9.409 12.076 3.546 2.167 7.471 3.198 11.35 3.198 7.36 0 14.555-3.716 18.666-10.442 2.162-3.533 1.047-8.149-2.487-10.309z"/></g><path d="m45.518 217.33c0-44.341 17.19-82.877 43.365-114.756l-36.813-13.121c-24.443 34.488-38.821 76.581-38.821 121.977 0 79.111 43.683 148.206 108.187 184.456-46.833-45.326-75.918-108.571-75.918-178.556z" fill="#cacac8"/><path d="m143.52 52.852-35.008-18.007c-22.033 14.546-41.191 33.1-56.442 54.607l33.515 17.238c16.217-20.72 36.239-38.74 57.935-53.838z" fill="#ffa2e7"/></g></svg>