<svg id="Capa_1" enable-background="new 0 0 497 497" height="512" viewBox="0 0 497 497" width="512" xmlns="http://www.w3.org/2000/svg"><g><path d="m212.667 306.669-148.274-72.805c-59.919 92.308 38.926 101.91 11.673 180.33-4.693 13.504 6.352 27.272 20.566 25.749 22.187-2.378 52.038-11.688 76.969-40.935 46.169-54.16 39.066-92.339 39.066-92.339z" fill="#00d1b3"/><path d="m284.333 306.669 148.275-72.806c59.919 92.308-38.926 101.91-11.673 180.33 4.693 13.504-6.352 27.272-20.566 25.749-22.187-2.378-52.038-11.688-76.969-40.935-46.17-54.159-39.067-92.338-39.067-92.338z" fill="#50e1cd"/><path d="m40.034 209.768c0-114.948 93.518-208.466 208.466-208.466s208.466 93.518 208.466 208.466z" fill="#50e1cd"/><path d="m158.414 47.752-14.707-18.122c-61.952 36.175-103.673 103.369-103.673 180.138h67.439c-.188-3.957-.289-7.937-.289-11.942 0-56.774 19.183-108.933 51.23-150.074z" fill="#00d1b3"/><path d="m378.459 497c0-89.614-58.868-129.72-58.868-129.72h-142.181s-58.868 40.106-58.868 129.72z" fill="#ff889e"/><path d="m197.101 367.449v27.241c0 15.045 12.196 27.241 27.241 27.241 10.504 0 19.613-5.948 24.158-14.657 4.546 8.708 13.655 14.657 24.158 14.657 15.045 0 27.241-12.196 27.241-27.241v-27.241z" fill="#fff"/><g fill="#ff748f"><path d="m185.99 497v-46.742c0-4.143-3.358-7.5-7.5-7.5s-7.5 3.357-7.5 7.5v46.742z"/><path d="m326.01 497v-46.742c0-4.143-3.358-7.5-7.5-7.5s-7.5 3.357-7.5 7.5v46.742z"/></g><circle cx="421.269" cy="219.967" fill="#ffcabd" r="48.784"/><g><path d="m147.232 476.315c0-49.456 25.389-91.762 61.316-109.036h-31.138s-58.868 40.106-58.868 129.72h30.2c-.992-6.714-1.51-13.626-1.51-20.684z" fill="#ff748f"/></g><path d="m262.056 105.003c-7.451-7.467-19.661-7.467-27.112 0-58.997 59.118-154.874 66.366-154.924 66.369-2.803 12.349-4.289 25.198-4.289 38.396 0 95.418 77.351 172.769 172.769 172.769s172.769-77.351 172.769-172.769c0-13.197-1.486-26.046-4.289-38.396-.072-.005-95.933-7.257-154.924-66.369z" fill="#ffdcce"/><circle cx="248.5" cy="457.284" fill="#fff" r="15.219"/><path d="m158.023 22.647c-52.13-64.547-56.678 29.397-56.678 29.397l16.011 19.825s92.797 15.324 40.667-49.222z" fill="#bc9bdd"/><path d="m79.173 69.95s-92.797-15.324-40.667 49.222c52.131 64.547 56.678-29.397 56.678-29.397z" fill="#bc9bdd"/><path d="m122.397 51.419c-9.115-11.286-25.654-13.046-36.94-3.931l-7.395 5.972c-11.286 9.115-13.046 25.654-3.931 36.94 9.115 11.286 25.654 13.046 36.94 3.931l7.395-5.972c11.286-9.115 13.046-25.654 3.931-36.94z" fill="#ffb5ec"/><path d="m338.977 22.647c52.13-64.547 56.678 29.397 56.678 29.397l-16.011 19.825s-92.797 15.324-40.667-49.222z" fill="#bc9bdd"/><path d="m417.827 69.95s92.797-15.324 40.667 49.222c-52.131 64.547-56.678-29.397-56.678-29.397z" fill="#bc9bdd"/><path d="m374.603 51.419c9.115-11.286 25.654-13.046 36.94-3.931l7.395 5.972c11.286 9.115 13.046 25.654 3.931 36.94-9.115 11.286-25.654 13.046-36.94 3.931l-7.395-5.972c-11.286-9.115-13.046-25.654-3.931-36.94z" fill="#ffb5ec"/><path d="m173.444 365.424c-41.001-43.319-66.26-102.426-66.26-167.598 0-10.481.656-20.805 1.923-30.933-17.527 3.604-29.07 4.478-29.088 4.479-.002.008-.003.016-.005.023-1.356-.134-2.775-.212-4.284-.212-26.943 0-48.784 21.841-48.784 48.784s21.842 48.785 48.784 48.785c3.77 0 7.033-.442 9.884-1.252 15.259 43.044 47.093 78.244 87.83 97.924z" fill="#ffcabd"/><g><g><g><ellipse cx="140.84" cy="241.38" fill="#ff9db0" rx="39.725" ry="31.635"/></g><g><ellipse cx="356.16" cy="241.38" fill="#ff9db0" rx="39.725" ry="31.635"/></g></g></g><g><g><path d="m163.991 218.428c-4.142 0-7.5-3.357-7.5-7.5v-16.239c0-4.143 3.358-7.5 7.5-7.5s7.5 3.357 7.5 7.5v16.239c0 4.142-3.358 7.5-7.5 7.5z" fill="#423e4f"/></g><g><path d="m333.009 218.428c-4.142 0-7.5-3.357-7.5-7.5v-16.239c0-4.143 3.358-7.5 7.5-7.5s7.5 3.357 7.5 7.5v16.239c0 4.142-3.358 7.5-7.5 7.5z" fill="#423e4f"/></g><g><path d="m248.5 228.094c-10.706 0-20.888-4.637-27.934-12.722-2.722-3.123-2.396-7.86.726-10.582 3.122-2.721 7.86-2.396 10.582.727 4.197 4.815 10.257 7.577 16.626 7.577s12.429-2.762 16.626-7.577c2.722-3.123 7.458-3.447 10.582-.727 3.123 2.722 3.448 7.459.726 10.582-7.046 8.085-17.228 12.722-27.934 12.722z" fill="#423e4f"/></g></g></g></svg>