<svg id="Capa_1" enable-background="new 0 0 497 497" height="512" viewBox="0 0 497 497" width="512" xmlns="http://www.w3.org/2000/svg"><g><path d="m39.486 209.014c0-115.251 93.764-209.014 209.014-209.014s209.014 93.763 209.014 209.014z" fill="#e7886e"/><g><circle cx="421.723" cy="219.24" fill="#ffbd86" r="48.913"/></g><path d="m324.06 497h-151.12l-47.26-52.74c15.88-53.02 51.54-77.32 51.54-77.32h142.56s35.66 24.3 51.54 77.32z" fill="#5c586f"/><path d="m106.806 202.37c0-98.47 64.523-180.916 151.068-202.149-3.109-.138-6.232-.221-9.374-.221-115.25 0-209.013 93.763-209.013 209.014h67.429c-.066-2.207-.11-4.42-.11-6.644z" fill="#e27858"/><g fill="#fed2a4"><path d="m373.965 117.885c-15.654 8.482-34.532 8.482-50.186 0-15.654-8.481-34.532-8.481-50.186 0-15.654 8.481-34.532 8.481-50.186 0-15.654-8.481-34.532-8.481-50.186 0-15.654 8.481-34.532 8.481-50.186 0-5.698-3.087-11.825-5.036-18.067-5.876-18.742 27.677-29.691 61.062-29.691 97.004 0 95.668 77.554 173.223 173.223 173.223s173.223-77.554 173.223-173.223c0-35.943-10.949-69.327-29.691-97.004-6.242.84-12.369 2.789-18.067 5.876z"/><path d="m172.94 444.26v52.74h-54.74c0-20.01 2.93-37.55 7.48-52.74z"/><path d="m378.8 497h-54.74v-52.74h47.26c4.55 15.19 7.48 32.73 7.48 52.74z"/></g><path d="m189.447 371.904c-49.993-37.565-82.641-99.493-82.641-169.534 0-29.986 5.993-58.48 16.76-84.218-.175-.093-.356-.172-.53-.266-5.698-3.087-11.825-5.036-18.067-5.876-11.847 17.495-20.574 37.271-25.397 58.531-1.359-.134-2.781-.213-4.294-.213-27.014 0-48.913 21.899-48.913 48.913s21.899 48.913 48.913 48.913c3.781 0 7.055-.443 9.916-1.255 17.266 48.708 55.703 87.4 104.253 105.005z" fill="#ffbd86"/><path d="m169.762 285.881c-34.412 0-62.309 27.897-62.309 62.309 0 34.412 27.897 62.309 62.309 62.309h14.699v-124.618z" fill="#50e1cd"/><path d="m327.238 285.881c34.412 0 62.309 27.897 62.309 62.309 0 34.412-27.897 62.309-62.309 62.309h-14.698v-124.618z" fill="#50e1cd"/><circle cx="248.5" cy="439.816" fill="#ff889e" r="25.757"/><path d="m191.051 277.78c-16.969 0-30.724 13.756-30.724 30.724v79.371c0 16.968 13.756 30.724 30.724 30.724 7.561 0 13.691-6.13 13.691-13.691v-113.437c0-7.561-6.13-13.691-13.691-13.691z" fill="#fff"/><path d="m305.949 277.78c16.969 0 30.724 13.756 30.724 30.724v79.371c0 16.968-13.756 30.724-30.724 30.724-7.561 0-13.691-6.13-13.691-13.691v-113.437c0-7.561 6.13-13.691 13.691-13.691z" fill="#fff"/><g><g><g><ellipse cx="142.831" cy="237.289" fill="#ff9db0" rx="38.99" ry="31.05"/></g><g><ellipse cx="354.169" cy="237.289" fill="#ff9db0" rx="38.99" ry="31.05"/></g></g></g><g><g><path d="m165.554 214.9c-4.142 0-7.5-3.357-7.5-7.5v-15.938c0-4.143 3.358-7.5 7.5-7.5s7.5 3.357 7.5 7.5v15.938c0 4.143-3.358 7.5-7.5 7.5z" fill="#423e4f"/></g><g><path d="m331.446 214.9c-4.142 0-7.5-3.357-7.5-7.5v-15.938c0-4.143 3.358-7.5 7.5-7.5s7.5 3.357 7.5 7.5v15.938c0 4.143-3.358 7.5-7.5 7.5z" fill="#423e4f"/></g><g><path d="m248.5 224.388c-10.549 0-20.581-4.569-27.522-12.536-2.721-3.122-2.396-7.86.727-10.581s7.86-2.396 10.582.728c4.093 4.696 10.002 7.39 16.214 7.39 6.211 0 12.121-2.693 16.214-7.391 2.722-3.123 7.459-3.448 10.582-.727s3.448 7.459.727 10.582c-6.944 7.966-16.976 12.535-27.524 12.535z" fill="#423e4f"/></g></g></g></svg>