<svg id="Capa_1" enable-background="new 0 0 497 497" height="512" viewBox="0 0 497 497" width="512" xmlns="http://www.w3.org/2000/svg"><g><path d="m248.5 356.85 20.328 76.977-20.328 63.173h-140.41c0-96.82 63.6-140.15 63.6-140.15z" fill="#5c586f"/><path d="m388.91 497h-140.41v-140.15h76.81s63.6 43.33 63.6 140.15z" fill="#4f4c5f"/><path d="m171.692 356.846 15.155 34.785c8.848 20.307 37.65 20.307 46.498 0l15.155-34.785z" fill="#ff748f"/><path d="m325.308 356.846-15.155 34.785c-8.848 20.307-37.65 20.307-46.498 0l-15.155-34.785z" fill="#ff748f"/><g><path d="m150.551 497v-43.555c0-4.143 3.358-7.5 7.5-7.5s7.5 3.357 7.5 7.5v43.555z" fill="#4f4c5f"/></g><g><path d="m331.449 497v-43.555c0-4.143 3.358-7.5 7.5-7.5s7.5 3.357 7.5 7.5v43.555z" fill="#423e4f"/></g><circle cx="226.411" cy="432.457" fill="#4f4c5f" r="6.911"/><circle cx="226.411" cy="464.963" fill="#4f4c5f" r="6.911"/><g><circle cx="425.165" cy="207.685" fill="#ffbd86" r="52.708"/></g><circle cx="248.5" cy="186.665" fill="#fed2a4" r="186.665"/><path d="m180.531 12.767c-60.155 23.53-105.111 77.37-116.098 142.738-25.604 3.6-45.306 25.584-45.306 52.181 0 29.11 23.598 52.708 52.708 52.708 1.752 0 3.422-.09 5.021-.257 18.274 42.63 51.963 77.083 94.059 96.347-35.606-42.275-57.718-101.256-57.718-166.522-.001-70.958 26.132-134.49 67.334-177.195z" fill="#ffbd86"/><path d="m424.681 99.316c-8.895-17.872-20.432-34.209-34.099-48.496-2.164-2.262-5.162-3.54-8.292-3.54h-267.58c-3.131 0-6.128 1.278-8.292 3.54-13.667 14.287-25.204 30.624-34.099 48.496-3.802 7.638 1.707 16.614 10.239 16.614h331.885c8.532 0 14.04-8.976 10.238-16.614z" fill="#ff889e"/><g><path d="m257.638 315.847h-18.275c-38.465 0-69.758-31.293-69.758-69.758s31.293-69.758 69.758-69.758h18.275c38.464 0 69.758 31.293 69.758 69.758s-31.294 69.758-69.758 69.758zm-18.275-124.516c-30.194 0-54.758 24.564-54.758 54.758s24.564 54.758 54.758 54.758h18.275c30.193 0 54.758-24.564 54.758-54.758s-24.564-54.758-54.758-54.758z" fill="#423e4f"/></g><g><g id="XMLID_3_"><path d="m248.5 237.819c-10.086 0-19.554-4.213-25.975-11.559-2.726-3.118-2.408-7.856.711-10.582s7.856-2.409 10.583.711c3.572 4.086 8.923 6.43 14.681 6.43s11.109-2.344 14.681-6.43c2.726-3.119 7.464-3.437 10.583-.711s3.437 7.464.711 10.582c-6.421 7.346-15.888 11.559-25.975 11.559z" fill="#423e4f"/></g><g><path d="m163.187 197.534c-4.142 0-7.5-3.357-7.5-7.5v-16.394c0-4.143 3.358-7.5 7.5-7.5s7.5 3.357 7.5 7.5v16.394c0 4.143-3.358 7.5-7.5 7.5z" fill="#423e4f"/></g><g><path d="m333.812 197.534c-4.142 0-7.5-3.357-7.5-7.5v-16.394c0-4.143 3.358-7.5 7.5-7.5s7.5 3.357 7.5 7.5v16.394c0 4.143-3.358 7.5-7.5 7.5z" fill="#423e4f"/></g></g><path d="m153.397 47.28h-38.687c-3.131 0-6.128 1.278-8.292 3.54-13.667 14.287-25.204 30.624-34.099 48.496-3.802 7.638 1.707 16.614 10.239 16.614h40.536c6.911-25.057 17.237-48.209 30.303-68.65z" fill="#ff748f"/></g></svg>