<svg id="Capa_1" enable-background="new 0 0 497 497" height="512" viewBox="0 0 497 497" width="512" xmlns="http://www.w3.org/2000/svg"><g><path d="m56.548 259.031c10.741 36.583 9.97 65.452 6.088 85.845-2.35 12.344 13.254 19.737 21.412 10.18 15.107-17.696 30.32-46.915 34.236-94.267z" fill="#4f4c5f"/><path d="m440.452 259.031c-10.741 36.583-9.97 65.452-6.088 85.845 2.35 12.344-13.254 19.737-21.412 10.18-15.107-17.696-30.32-46.915-34.236-94.267z" fill="#5c586f"/><path d="m35.979 212.521c0-26.525 4.887-51.942 13.801-75.372l198.72-32.048 198.72 32.048c8.914 23.429 13.801 48.847 13.801 75.372z" fill="#5c586f"/><g><circle cx="419.763" cy="231.791" fill="#ffbe9c" r="48.317"/></g><path d="m300.773 496.997h-104.547l52.274-128.473z" fill="#d8d8d8"/><path d="m248.5 368.524c0 70.982-34.994 109.9-52.274 128.473h-76.438c0-88.748 58.299-128.473 58.299-128.473z" fill="#ff889e"/><path d="m377.212 496.997h-76.438c-17.28-18.574-52.274-57.492-52.274-128.473h70.412s58.3 39.725 58.3 128.473z" fill="#ff889e"/><path d="m178.091 368.524 13.892 31.886c8.11 18.615 34.513 18.615 42.624 0l13.892-31.886z" fill="#ff748f"/><path d="m318.909 368.524-13.892 31.886c-8.11 18.615-34.513 18.615-42.624 0l-13.893-31.886z" fill="#ff748f"/><g><g><path d="m158.088 497v-39.926c0-4.143 3.358-7.5 7.5-7.5s7.5 3.357 7.5 7.5v39.926z" fill="#ff748f"/></g><g><path d="m323.912 497v-39.926c0-4.143 3.358-7.5 7.5-7.5s7.5 3.357 7.5 7.5v39.926z" fill="#ff748f"/></g></g><path d="m112.303 201.227c0-26.634 4-52.202 11.332-75.988l-73.855 11.91c-8.914 23.43-13.801 48.847-13.801 75.372h76.569c-.159-3.742-.245-7.507-.245-11.294z" fill="#4f4c5f"/><circle cx="248.5" cy="212.522" fill="#ffd3bc" r="171.112"/><path d="m408.727 73.052-160.227 32.049-160.227-32.049c38.991-44.736 96.358-73.052 160.227-73.052s121.236 28.316 160.227 73.052z" fill="#5c586f"/><path d="m174.254 366.731c-38.184-41.775-61.952-100.479-61.952-165.504 0-45.971 11.884-88.781 32.338-124.687-33.596 25.699-57.38 63.563-64.794 107.012-.844-.048-1.71-.078-2.61-.078-26.685 0-48.317 21.632-48.317 48.317s21.632 48.316 48.317 48.316c5.252 0 9.521-.849 13.011-2.399 16.087 39.011 46.174 70.774 84.007 89.023z" fill="#ffbe9c"/><path d="m212.035 3.144c-49.036 8.515-92.361 33.879-123.762 69.908l52.528 10.506c17.417-33.131 41.965-60.847 71.234-80.414z" fill="#4f4c5f"/><path d="m447.22 137.149h-397.44c9.018-23.678 22.135-45.337 38.493-64.097h320.454c16.358 18.761 29.475 40.42 38.493 64.097z" fill="#ff889e"/><g><g><g><ellipse cx="145.286" cy="240.986" fill="#ff9db0" rx="38.084" ry="30.328"/></g><g><ellipse cx="351.714" cy="240.986" fill="#ff9db0" rx="38.084" ry="30.328"/></g></g></g><g><g><path d="m167.482 219.291c-4.142 0-7.5-3.357-7.5-7.5v-15.568c0-4.143 3.358-7.5 7.5-7.5s7.5 3.357 7.5 7.5v15.568c0 4.143-3.358 7.5-7.5 7.5z" fill="#423e4f"/></g><g><path d="m329.518 219.291c-4.142 0-7.5-3.357-7.5-7.5v-15.568c0-4.143 3.358-7.5 7.5-7.5s7.5 3.357 7.5 7.5v15.568c0 4.143-3.358 7.5-7.5 7.5z" fill="#423e4f"/></g><g><path d="m248.5 228.559c-10.353 0-20.199-4.484-27.014-12.303-2.722-3.122-2.396-7.86.726-10.582 3.122-2.721 7.86-2.397 10.582.727 3.965 4.549 9.69 7.158 15.706 7.158 6.017 0 11.741-2.609 15.707-7.158 2.721-3.123 7.459-3.447 10.582-.727 3.123 2.722 3.448 7.46.726 10.582-6.816 7.818-16.662 12.303-27.015 12.303z" fill="#423e4f"/></g></g><path d="m313.76 61.344c-1.279-6.3-6.21-11.23-12.51-12.51-15.654-3.179-32.551 1.294-44.692 13.436-14.663 14.663-18.142 36.262-10.464 54.231 17.969 7.678 39.568 4.198 54.231-10.464 12.141-12.142 16.614-29.039 13.435-44.693z" fill="#f9496e"/><path d="m240.442 62.27c-12.142-12.141-29.039-16.614-44.692-13.435-6.3 1.279-11.23 6.21-12.51 12.51-3.179 15.654 1.294 32.551 13.435 44.692 14.663 14.663 36.262 18.142 54.231 10.464 7.678-17.969 4.198-39.568-10.464-54.231z" fill="#fd5f7e"/><g fill="#ff748f"><circle cx="248.5" cy="129.949" r="29.189"/><path d="m146.658 73.053h-58.385c-16.358 18.76-29.476 40.419-38.493 64.097h70.499c5.882-23.069 14.851-44.643 26.379-64.097z"/></g></g></svg>