<svg id="Capa_1" enable-background="new 0 0 497 497" height="512" viewBox="0 0 497 497" width="512" xmlns="http://www.w3.org/2000/svg"><g><path d="m178.031 372.673 23.408 64.29-23.408 54.404h-58.348c0-88.828 58.348-118.694 58.348-118.694z" fill="#ff889e"/><path d="m377.317 491.367h-58.882l-17.864-54.404 17.864-64.29.564.03h.01c1.769 1.226 58.308 31.22 58.308 118.664z" fill="#ff889e"/><path d="m178.031 372.673h140.403v118.693h-140.403z" fill="#ffb5ec"/><circle cx="248.233" cy="387.799" fill="#ff889e" r="39.694"/><path d="m490.065 90.106-15.74-8.013 6.341-21.932c1.889-6.532-1.724-13.389-8.179-15.525l-21.674-7.174 2.293-17.513c1.099-8.399-6.219-15.555-14.57-14.136-55.34 9.403-67.142 64.649-67.142 64.649l30.799 58.465s52.238 21.511 91.289-18.811c5.894-6.084 4.131-16.166-3.417-20.01z" fill="#ffa2e7"/><path d="m41.866 216.545c0-113.938 92.696-206.634 206.634-206.634s206.635 92.696 206.635 206.634z" fill="#ffb5ec"/><path d="m199.802 15.722c-29.562 7.169-56.659 20.715-79.75 39.089-7.825-17.088-25.393-42.848-61.588-48.998-8.351-1.419-15.669 5.737-14.57 14.136l2.293 17.513-21.674 7.174c-6.455 2.136-10.067 8.993-8.179 15.525l6.341 21.932-15.74 8.013c-7.549 3.843-9.311 13.926-3.418 20.011 17.759 18.336 38.243 23.884 55.303 24.485-10.902 25.135-16.954 52.844-16.954 81.942h71.826c-.208-4.203-.317-8.434-.317-12.691-.001-76.287 33.786-144.243 86.427-188.131z" fill="#ffa2e7"/><g><circle cx="419.751" cy="226.654" fill="#ffcabd" r="48.356"/></g><path d="m419.748 216.541c0 94.67-76.811 171.402-171.515 171.258s-171.78-78.042-170.975-172.743c.269-31.628 9.116-61.209 24.32-86.533 3.356-5.59 10.749-7.169 16.116-3.467l17.717 12.218c5.882 4.053 13.663 4.053 19.535 0l32.13-22.155c5.872-4.053 13.653-4.053 19.535 0l32.12 22.155c5.882 4.053 13.653 4.053 19.535 0l32.12-22.155c5.882-4.053 13.663-4.053 19.545 0l32.12 22.155c5.872 4.053 13.653 4.053 19.535 0l17.72-12.219c5.355-3.693 12.746-2.139 16.095 3.438 15.455 25.726 24.347 55.848 24.347 88.048z" fill="#ffd8d2"/><path d="m180.012 373.426c-41.168-43.376-66.638-103.335-66.638-169.573 0-25.875 3.902-50.783 11.092-74.127l-6.772-4.669c-5.367-3.702-12.76-2.122-16.116 3.467-9.17 15.273-16.007 32.103-20.065 49.988-1.349-.134-2.761-.213-4.265-.213-26.706 0-48.356 21.65-48.356 48.356s21.65 48.356 48.356 48.356c3.783 0 7.047-.449 9.891-1.27 15.905 44.542 49.799 80.743 92.873 99.685z" fill="#ffcabd"/><g><g><g><ellipse cx="145.54" cy="249.134" fill="#ff9db0" rx="37.99" ry="30.254"/></g><g><ellipse cx="351.46" cy="249.134" fill="#ff9db0" rx="37.99" ry="30.254"/></g></g></g><g><g><path d="m167.68 227.511c-4.142 0-7.5-3.357-7.5-7.5v-15.529c0-4.143 3.358-7.5 7.5-7.5s7.5 3.357 7.5 7.5v15.529c0 4.142-3.358 7.5-7.5 7.5z" fill="#423e4f"/></g><g><path d="m329.319 227.511c-4.142 0-7.5-3.357-7.5-7.5v-15.529c0-4.143 3.358-7.5 7.5-7.5s7.5 3.357 7.5 7.5v15.529c0 4.142-3.358 7.5-7.5 7.5z" fill="#423e4f"/></g><g><path d="m248.5 236.756c-10.334 0-20.162-4.476-26.962-12.28-2.721-3.122-2.396-7.86.727-10.581s7.86-2.396 10.582.728c3.951 4.533 9.656 7.134 15.653 7.134s11.702-2.601 15.653-7.135c2.721-3.123 7.459-3.448 10.582-.727 3.123 2.722 3.448 7.459.727 10.582-6.801 7.803-16.628 12.279-26.962 12.279z" fill="#423e4f"/></g></g></g></svg>