<svg id="Capa_1" enable-background="new 0 0 497 497" height="512" viewBox="0 0 497 497" width="512" xmlns="http://www.w3.org/2000/svg"><g><path d="m319.061 368.238s34.359 23.406 50.375 74.439l-49.301 54.323h-143.269l-49.302-54.323c16.016-51.033 50.375-74.439 50.375-74.439z" fill="#bc9bdd"/><path d="m186.335 336.761 32.122 72.244c11.573 26.028 48.513 26.028 60.086 0l32.122-72.244z" fill="#c7856a"/><path d="m199.499 368.238h-21.561s-34.359 23.406-50.375 74.438l19.329 21.298c6.743-37.674 25.714-71.041 52.607-95.736z" fill="#b08bd7"/><path d="m419.984 211.9c0 69.549-41.416 129.44-100.922 156.339-21.523 9.729-45.404 15.145-70.561 15.145s-49.039-5.416-70.561-15.145c-59.508-26.899-100.923-86.79-100.923-156.339 0-94.716 76.777-171.494 171.483-171.494s171.484 76.777 171.484 171.494z" fill="#da9d81"/><path d="m461.221 290.912c5.934-10.486 5.934-23.316 0-33.802s-5.934-23.316 0-33.802 5.934-23.316 0-33.802l-9.564-16.901-44.338-25.473-52.059 25.473 9.564 16.901c5.934 10.486 5.934 23.316 0 33.802-5.934 10.486-5.934 23.316 0 33.802 5.934 10.486 5.934 23.316 0 33.802-5.934 10.486-5.934 23.316 0 33.802 5.934 10.486 5.934 23.316 0 33.802-4.272 7.549 1.182 16.901 9.855 16.901h57.557c12.001 0 23.074-6.457 28.984-16.901 5.934-10.486 5.934-23.316 0-33.802-5.933-10.486-5.933-23.316.001-33.802z" fill="#fbe29f"/><path d="m35.779 290.912c-5.934-10.486-5.934-23.316 0-33.802s5.934-23.316 0-33.802-5.934-23.316 0-33.802l9.564-16.901 44.338-25.473 52.059 25.473-9.564 16.901c-5.934 10.486-5.934 23.316 0 33.802 5.934 10.486 5.934 23.316 0 33.802-5.934 10.486-5.934 23.316 0 33.802 5.934 10.486 5.934 23.316 0 33.802-5.934 10.486-5.934 23.316 0 33.802 4.272 7.549-1.182 16.901-9.855 16.901h-57.558c-12.001 0-23.074-6.457-28.984-16.901-5.934-10.486-5.934-23.316 0-33.802s5.934-23.316 0-33.802z" fill="#fbe29f"/><path d="m176.866 442.677v54.323h-57.36c0-20.743 3.179-38.804 8.058-54.323z" fill="#da9d81"/><path d="m377.495 497h-57.36v-54.323h49.302c4.879 15.519 8.058 33.58 8.058 54.323z" fill="#da9d81"/><path d="m72.438 253.151c0-37.098 7.183-72.44 20.172-104.586l-2.929-1.434-44.338 25.473-9.564 16.901c-5.934 10.486-5.934 23.316 0 33.802s5.934 23.316 0 33.802-5.934 23.316 0 33.802c5.934 10.486 5.934 23.316 0 33.802s-5.934 23.316 0 33.802c5.911 10.444 16.983 16.901 28.984 16.901h35.732c-17.937-36.676-28.057-78.234-28.057-122.265z" fill="#fccb88"/><path d="m248.5 4.974c-180.829-22.326-183.894 35.98-174.125 66.528 3.74 11.695 2.443 24.399-3.834 34.952-11.963 20.113-20.616 42.414-25.198 66.149h406.314c-18.409-95.37-103.255-155.295-203.157-167.629z" fill="#ffb5ec"/><path d="m266.28 82.846h-35.559c-14.07 0-25.476 11.406-25.476 25.476 0 14.07 11.406 25.476 25.476 25.476h35.559c14.07 0 25.476-11.406 25.476-25.476 0-14.069-11.406-25.476-25.476-25.476z" fill="#fff"/><g><g><path d="m168.593 251.334c-4.142 0-7.5-3.357-7.5-7.5v-15.354c0-4.143 3.358-7.5 7.5-7.5s7.5 3.357 7.5 7.5v15.354c0 4.142-3.358 7.5-7.5 7.5z" fill="#423e4f"/></g><g><path d="m328.407 251.334c-4.142 0-7.5-3.357-7.5-7.5v-15.354c0-4.143 3.358-7.5 7.5-7.5s7.5 3.357 7.5 7.5v15.354c0 4.142-3.358 7.5-7.5 7.5z" fill="#423e4f"/></g><g><path d="m248.5 260.474c-10.242 0-19.981-4.436-26.721-12.17-2.721-3.123-2.396-7.861.727-10.582 3.123-2.722 7.86-2.395 10.582.727 3.891 4.465 9.508 7.025 15.413 7.025s11.522-2.561 15.413-7.025c2.722-3.123 7.459-3.448 10.582-.727 3.123 2.722 3.448 7.459.727 10.582-6.742 7.735-16.481 12.17-26.723 12.17z" fill="#423e4f"/></g></g><path d="m234.375 3.356c-166.851-17.605-169.508 38.415-160 68.146 3.74 11.695 2.443 24.399-3.834 34.952-11.962 20.113-20.616 42.414-25.198 66.149h38.836c23.174-77.292 78.813-139.539 150.196-169.247z" fill="#ffa2e7"/><path d="m144.185 494.558c0-18.092 2.794-35.521 7.952-51.882h-24.574c-4.88 15.52-8.058 33.58-8.058 54.323h24.711c-.011-.813-.031-1.625-.031-2.441z" fill="#c7856a"/></g></svg>