<svg id="Capa_1" enable-background="new 0 0 497 497" height="512" viewBox="0 0 497 497" width="512" xmlns="http://www.w3.org/2000/svg"><g><path d="m63.116 166.897c-6.363 19.243-9.819 39.796-9.819 61.145h390.407c0-21.348-3.456-41.902-9.819-61.145l-185.385-27.541z" fill="#5c586f"/><path d="m248.5 375.53 28.33 69.66-28.33 51.81h-61.88l-52.04-51.81c15.19-47.74 47.35-69.66 47.35-69.66z" fill="#9ae0eb"/><path d="m431.44 63.2v3.48l-178.626 21.541-187.254-21.541v-3.48c0-34.9 28.29-63.2 63.2-63.2h239.48c34.91 0 63.2 28.3 63.2 63.2z" fill="#fbe29f"/><g><circle cx="410.277" cy="253.469" fill="#ffbe9c" r="45.681"/></g><path d="m362.42 445.19-52.04 51.81h-61.88v-107.18l-13.56-14.29h80.13s32.16 21.92 47.35 69.66z" fill="#64d1e1"/><path d="m248.5 389.819-19.731 31.87c-5.943 9.599-20.138 8.87-25.066-1.287l-21.773-44.872z" fill="#fff"/><path d="m248.5 389.819 19.731 31.87c5.943 9.599 20.138 8.87 25.066-1.287l21.772-44.872z" fill="#fff"/><path d="m115.566 1.389c-28.573 6.07-50.006 31.436-50.006 61.811v3.48l32.997 3.796c1.234-25.82 5.703-49.49 17.009-69.087z" fill="#fccb88"/><path d="m65.56 66.68h365.88v72.68h-365.88z" fill="#9ae0eb"/><path d="m219.3 101.872s-3.756 8.331 1.581 13.283c18.182 16.869 65.447 41.781 65.447-26.934 0-88.889-67.028-13.651-67.028-13.651z" fill="#ffa2e7"/><path d="m188.768 101.872s3.027 7.839-2.199 12.704c-18.088 16.838-64.829 42.609-64.829-26.355 0-88.889 67.028-13.651 67.028-13.651z" fill="#ffa2e7"/><path d="m209.126 60.079h-10.184c-15.542 0-28.142 12.6-28.142 28.142 0 15.542 12.6 28.142 28.142 28.142h10.184c15.542 0 28.142-12.6 28.142-28.142 0-15.543-12.6-28.142-28.142-28.142z" fill="#ffb5ec"/><path d="m98.69 166.897c-7.708 18.865-11.967 39.506-11.967 61.145 0 89.347 72.43 161.777 161.777 161.777s161.777-72.43 161.777-161.777c0-21.639-4.259-42.279-11.967-61.145l-149.81-27.541z" fill="#ffd3bc"/><path d="m179.294 374.301c-35.998-39.576-57.755-95.886-57.755-161.343 0-17.355 1.542-34.462 4.46-51.082l-27.309 5.021c-5.267 12.891-8.921 26.612-10.709 40.914-.419-.012-.837-.022-1.259-.022-25.229 0-45.681 20.452-45.681 45.681s20.452 45.681 45.681 45.681c5.329 0 10.439-.925 15.192-2.604 15.948 34.057 43.407 61.651 77.38 77.754z" fill="#ffbe9c"/><g><path d="m98.168 87.637c0-7.122.177-14.118.594-20.957h-33.202v72.68h43.906c-7.236-16.019-11.298-33.467-11.298-51.723z" fill="#64d1e1"/></g><path d="m445.328 111.815h-393.656c-10.615 0-19.22 8.605-19.22 19.22v16.643c0 10.615 8.605 19.22 19.22 19.22h393.655c10.615 0 19.22-8.605 19.22-19.22v-16.643c0-10.615-8.605-19.22-19.219-19.22z" fill="#fbe29f"/><g><g><path d="m158.359 243.083c-4.142 0-7.5-3.357-7.5-7.5v-17.321c0-4.143 3.358-7.5 7.5-7.5s7.5 3.357 7.5 7.5v17.321c0 4.142-3.358 7.5-7.5 7.5z" fill="#423e4f"/></g><g><path d="m338.641 243.083c-4.142 0-7.5-3.357-7.5-7.5v-17.321c0-4.143 3.358-7.5 7.5-7.5s7.5 3.357 7.5 7.5v17.321c0 4.142-3.358 7.5-7.5 7.5z" fill="#423e4f"/></g><g><path d="m248.5 253.394c-11.275 0-21.999-4.884-29.419-13.399-2.721-3.123-2.396-7.86.727-10.582 3.122-2.721 7.86-2.396 10.582.727 4.571 5.246 11.172 8.255 18.111 8.255s13.54-3.009 18.111-8.255c2.721-3.123 7.459-3.448 10.582-.727 3.123 2.722 3.448 7.459.727 10.582-7.423 8.515-18.146 13.399-29.421 13.399z" fill="#423e4f"/></g></g><path d="m186.62 445.19v51.81h-59.81c0-19.82 3.07-37.05 7.77-51.81z" fill="#ffd3bc"/><path d="m370.19 497h-59.81v-51.81h52.04c4.7 14.76 7.77 31.99 7.77 51.81z" fill="#ffd3bc"/><g><path d="m100.58 111.815h-48.908c-10.615 0-19.22 8.605-19.22 19.22v16.643c0 10.615 8.605 19.22 19.22 19.22h74.348c-12.471-16.262-21.405-34.944-25.44-55.083z" fill="#fccb88"/></g></g></svg>