<svg id="Capa_1" enable-background="new 0 0 497 497" height="512" viewBox="0 0 497 497" width="512" xmlns="http://www.w3.org/2000/svg"><g><path d="m364.561 497c0-68.457-51.51-98.613-51.51-98.613h-129.102s-51.51 30.157-51.51 98.613h39.444l76.617-24.653 76.617 24.653z" fill="#bc9bdd"/><path d="m292.793 447.693h-88.586c-17.852 0-32.324 14.472-32.324 32.324v16.983h153.235v-16.982c-.001-17.853-14.473-32.325-32.325-32.325z" fill="#50e1cd"/><path d="m183.949 398.387v41.993c0 10.752 8.716 19.468 19.468 19.468s19.468-8.716 19.468-19.468v-41.993z" fill="#fbe29f"/><path d="m313.05 398.387v41.993c0 10.752-8.716 19.468-19.468 19.468s-19.468-8.716-19.468-19.468v-41.993z" fill="#fbe29f"/><circle cx="395.524" cy="287.426" fill="#ffcabd" r="41.626"/><circle cx="248.5" cy="265.862" fill="#ffdcce" r="147.383"/><g><g><g><ellipse cx="337.535" cy="306.303" fill="#ff9db0" rx="32.852" ry="26.162"/></g></g></g><path d="m79.828 131.435c-8.557-62.792 16.235-131.435 168.672-131.435s177.229 68.643 168.672 131.435z" fill="#ff889e"/><path d="m126.613 126.988c0-47.857 18.068-90.74 46.6-119.702-85.531 19.269-100.274 73.6-93.386 124.148h46.841c-.034-1.477-.055-2.959-.055-4.446z" fill="#ff748f"/><path d="m417.172 131.435c-2.764 20.299-9.016 39.982-15.571 56.54h-306.202c-6.555-16.557-12.807-36.241-15.571-56.54 15.21-19.058 33.594-35.508 54.449-48.559 34.238-21.442 73.742-32.773 114.223-32.773s79.984 11.331 114.223 32.773c20.855 13.05 39.24 29.5 54.449 48.559z" fill="#5c586f"/><ellipse cx="248.5" cy="76.058" fill="#fbe29f" rx="37.792" ry="43.879"/><path d="m271.113 131.435c32.511 0 62.337 12.916 85.64 34.426-26.925-29.133-65.455-47.381-108.253-47.381-74.6 0-136.244 55.428-146.021 127.346-.334-.008-.661-.025-1.002-.025-22.989 0-41.626 18.636-41.626 41.626 0 22.989 18.637 41.626 41.626 41.626 4.962 0 9.159-.872 12.695-2.465 13.974 30.855 38.268 56.04 68.477 71.153-28.514-27.814-46.546-68.841-46.546-114.601 0-83.785 60.446-151.705 135.01-151.705z" fill="#ffcabd"/><g><path d="m126.613 126.988c0-14.662 1.703-28.854 4.875-42.326-19.706 12.755-37.134 28.57-51.661 46.772 2.764 20.299 9.016 39.982 15.571 56.54h41.578c-6.672-18.764-10.363-39.367-10.363-60.986z" fill="#4f4c5f"/></g><path d="m401.599 187.973c-28.446-55.692-86.389-93.915-153.099-93.915s-124.653 38.222-153.099 93.914c-6.684 13.086 3.008 28.606 17.703 28.606h270.792c14.695.001 24.387-15.519 17.703-28.605z" fill="#bc9bdd"/><ellipse cx="159.465" cy="306.303" fill="#ff9db0" rx="32.852" ry="26.162"/><g><g><path d="m178.612 288.619c-4.142 0-7.5-3.357-7.5-7.5v-13.43c0-4.143 3.358-7.5 7.5-7.5s7.5 3.357 7.5 7.5v13.43c0 4.143-3.358 7.5-7.5 7.5z" fill="#423e4f"/></g><g><path d="m318.388 288.619c-4.142 0-7.5-3.357-7.5-7.5v-13.43c0-4.143 3.358-7.5 7.5-7.5s7.5 3.357 7.5 7.5v13.43c0 4.143-3.358 7.5-7.5 7.5z" fill="#423e4f"/></g><g><path d="m248.5 296.614c-9.23 0-18.007-3.997-24.08-10.968-2.721-3.123-2.395-7.86.728-10.581 3.123-2.722 7.86-2.396 10.582.728 3.224 3.699 7.878 5.821 12.771 5.821s9.547-2.122 12.771-5.821c2.721-3.124 7.459-3.449 10.582-.728s3.449 7.458.728 10.581c-6.075 6.971-14.852 10.968-24.082 10.968z" fill="#423e4f"/></g></g><g><path d="m127.403 144.148c-12.837 12.775-23.688 27.546-32.002 43.824-6.684 13.086 3.008 28.606 17.703 28.606h37.159c-12.312-21.019-20.41-45.724-22.86-72.43z" fill="#b08bd7"/></g></g></svg>