<svg id="Capa_1" enable-background="new 0 0 497 497" height="512" viewBox="0 0 497 497" width="512" xmlns="http://www.w3.org/2000/svg"><g><path d="m293.525 369.001 24.938 63.999-24.938 64h-90.05l-27.775-64 27.775-63.999z" fill="#d8d8d8"/><path d="m376.731 497h-83.206v-127.999h25.119s58.087 39.57 58.087 127.999z" fill="#ff889e"/><path d="m203.475 369.001v127.999h-83.206c0-88.429 58.087-127.999 58.087-127.999z" fill="#ff889e"/><g><path d="m325.615 497v-43.225c0-4.143 3.358-7.5 7.5-7.5s7.5 3.357 7.5 7.5v43.225z" fill="#ff748f"/></g><g><path d="m161.015 497v-43.225c0-4.143 3.358-7.5 7.5-7.5s7.5 3.357 7.5 7.5v43.225z" fill="#ff748f"/></g><path d="m102.151 47.723c-.017-.038-1.699-3.805-5.742-7.64-5.154-4.889-11.834-7.766-19.854-8.553-8.297-.813-14.364-8.199-13.551-16.496.813-8.298 8.208-14.358 16.496-13.551 30.2 2.96 46.024 23.307 50.614 34.862l-28.059 11.144z" fill="#ff748f"/><path d="m463.059 258.856c-2.164-14.587-3.832-29.736-3.832-45.272 0-116.195-94.531-210.727-210.727-210.727s-210.727 94.532-210.727 210.727c0 15.536-1.668 30.685-3.832 45.272-5.645 38.059 23.661 72.297 62.136 72.297h304.845c38.476 0 67.782-34.239 62.137-72.297z" fill="#5c586f"/><path d="m169.762 46.346-19.265-19.265c-66.968 35.329-112.724 105.668-112.724 186.503 0 15.536-1.668 30.685-3.832 45.271-5.645 38.059 23.661 72.298 62.136 72.298h60.264c-27.383-36.899-43.736-83.531-43.736-134.238 0-58.518 21.778-111.605 57.157-150.569z" fill="#4f4c5f"/><path d="m353.152 161.56-17.061-20.894c-5.928-7.26-17.023-7.26-22.951 0l-17.061 20.894c-2.814 3.446-7.027 5.445-11.476 5.445h-72.206c-4.449 0-8.662-1.999-11.476-5.445l-17.061-20.894c-5.928-7.26-17.023-7.26-22.951 0l-17.061 20.894c-2.814 3.446-7.027 5.445-11.476 5.445h-29.924c-10.964 0-20.378 7.906-22.156 18.726-1.522 9.259-2.298 18.77-2.264 28.468.333 94.421 78.372 171.099 172.786 169.842 93.082-1.239 168.157-77.08 168.157-170.457 0-9.496-.777-18.81-2.27-27.883-1.779-10.807-11.197-18.696-22.15-18.696h-29.925c-4.447 0-8.66-1.999-11.474-5.445z" fill="#ffd8d2"/><path d="m112.605 196.915c0-10.15.67-20.132 1.938-29.91h-12.094c-10.964 0-20.378 7.906-22.156 18.726-1.522 9.259-2.298 18.77-2.264 28.468.277 78.517 54.29 144.756 126.766 164.123-55.502-38.644-92.19-105.452-92.19-181.407z" fill="#ffcabd"/><circle cx="171.788" cy="249.282" fill="#ffe7e5" r="51.519"/><g><circle cx="325.212" cy="249.282" fill="#ffe7e5" r="51.519"/></g><g><g><path d="m171.787 264.314c-4.142 0-7.5-3.357-7.5-7.5v-15.065c0-4.143 3.358-7.5 7.5-7.5s7.5 3.357 7.5 7.5v15.065c0 4.143-3.358 7.5-7.5 7.5z" fill="#423e4f"/></g><g><path d="m325.213 264.314c-4.142 0-7.5-3.357-7.5-7.5v-15.065c0-4.143 3.358-7.5 7.5-7.5s7.5 3.357 7.5 7.5v15.065c0 4.143-3.358 7.5-7.5 7.5z" fill="#423e4f"/></g><g><path d="m248.5 318.973c-10.089 0-19.684-4.369-26.324-11.988-2.722-3.123-2.396-7.86.726-10.582 3.122-2.721 7.86-2.396 10.582.727 3.791 4.35 9.264 6.844 15.016 6.844s11.226-2.494 15.017-6.844c2.722-3.123 7.458-3.447 10.582-.727 3.123 2.722 3.448 7.459.726 10.582-6.641 7.618-16.236 11.988-26.325 11.988z" fill="#423e4f"/></g></g><path d="m325.213 190.263c-27.522 0-50.7 18.937-57.199 44.464-6.139-2.536-12.737-3.855-19.513-3.855-6.778 0-13.376 1.317-19.514 3.853-6.499-25.526-29.677-44.463-57.199-44.463-32.543 0-59.019 26.476-59.019 59.019s26.476 59.019 59.019 59.019c32.125 0 58.318-25.803 58.987-57.77 5.393-3.043 11.445-4.658 17.726-4.658 6.279 0 12.332 1.614 17.725 4.657.669 31.967 26.863 57.771 58.987 57.771 32.543 0 59.019-26.476 59.019-59.019s-26.476-59.018-59.019-59.018zm-153.426 103.038c-24.272 0-44.019-19.747-44.019-44.019s19.747-44.019 44.019-44.019 44.019 19.747 44.019 44.019-19.747 44.019-44.019 44.019zm153.426 0c-24.272 0-44.019-19.747-44.019-44.019s19.747-44.019 44.019-44.019 44.019 19.747 44.019 44.019-19.747 44.019-44.019 44.019z" fill="#5c586f"/><path d="m74.805 121.626c-17.131-11.871-21.396-35.382-9.524-52.514 21.449-30.952 51.396-54.065 86.606-66.84 19.594-7.108 41.239 3.012 48.347 22.604 7.109 19.593-3.012 41.239-22.604 48.347-20.424 7.41-37.821 20.854-50.311 38.878-11.814 17.048-35.305 21.451-52.514 9.525z" fill="#ff889e"/><path d="m91.423 39.023c-9.701 8.953-18.468 19.017-26.142 30.09-11.871 17.131-7.607 40.642 9.524 52.514 17.21 11.926 40.701 7.523 52.514-9.524 2.186-3.154 4.531-6.16 7.008-9.026-23.597-11.363-40.527-35.49-42.904-64.054z" fill="#ff748f"/></g></svg>