<svg id="Capa_1" enable-background="new 0 0 497 497" height="512" viewBox="0 0 497 497" width="512" xmlns="http://www.w3.org/2000/svg"><g><path d="m36.401 214.813c0 27.823 1.708 52.145 4.424 73.233 3.9 30.278 29.783 52.89 60.311 52.89h294.729c30.528 0 56.411-22.612 60.311-52.89 2.716-21.089 4.424-45.41 4.424-73.233z" fill="#e7886e"/><path d="m237.792 214.813h-201.391c0 27.823 1.708 52.145 4.424 73.233 3.9 30.278 29.783 52.89 60.311 52.89h136.657v-126.123z" fill="#e27858"/><path d="m319.004 368.35h-141.008s-58.383 39.775-58.383 128.65h96.533l32.354-16.659 32.354 16.659h96.533c0-88.875-58.383-128.65-58.383-128.65z" fill="#ffb5ec"/><path d="m280.854 497-16.044-89.395h-32.62l-16.044 89.395z" fill="#50e1cd"/><path d="m248.5 457.892c8.706 0 16.96-1.961 24.357-5.45l-8.047-44.837h-32.62l-8.047 44.837c7.397 3.489 15.651 5.45 24.357 5.45z" fill="#00d1b3"/><path d="m221.204 340.936v59.66c0 15.075 12.221 27.296 27.296 27.296s27.296-12.221 27.296-27.296v-59.66z" fill="#50e1cd"/><g><path d="m161.987 497v-41.894c0-4.143 3.358-7.5 7.5-7.5s7.5 3.357 7.5 7.5v41.894z" fill="#ffa2e7"/></g><g><path d="m320.013 497v-41.894c0-4.143 3.358-7.5 7.5-7.5s7.5 3.357 7.5 7.5v41.894z" fill="#ffa2e7"/></g><path d="m36.401 214.813c0-116.952 95.147-212.099 212.099-212.099s212.1 95.147 212.1 212.099z" fill="#e7886e"/><path d="m157.519 61.211-24.327-24.327c-58.215 37.85-96.791 103.465-96.791 177.929h72.164c-.188-3.813-.287-7.649-.287-11.509 0-53.653 18.406-103.003 49.241-142.093z" fill="#e27858"/><g><circle cx="419.844" cy="222.252" fill="#ffcabd" r="48.382"/></g><g><path d="m141.586 478.118c0-58.676 45.968-106.611 103.856-109.768h-67.446s-58.383 39.775-58.383 128.65h23.594c-1.062-6.135-1.621-12.443-1.621-18.882z" fill="#ffa2e7"/></g><path d="m415.591 174.058h-98.7c-9.333 0-18.082-4.538-23.458-12.167l-21.474-30.474c-11.432-16.223-35.485-16.223-46.917 0l-21.474 30.474c-5.376 7.629-14.126 12.167-23.458 12.167h-98.7c-2.833 12.482-4.309 25.48-4.252 38.833.408 94.463 79.684 172.077 174.135 170.568 93.343-1.492 168.551-77.624 168.551-171.322 0-13.088-1.474-25.832-4.253-38.079z" fill="#ffd8d2"/><ellipse cx="349.158" cy="250.603" fill="#ff9db0" rx="37.141" ry="29.577"/><path d="m135.95 116.719.074.006c26.566 2.381 43.767-27.405 28.427-49.225l-.046-.066.046-.066c15.34-21.819-1.862-51.606-28.427-49.224l-.074.007c-11.221-24.202-45.626-24.202-56.848 0l-.074-.007c-26.565-2.38-43.767 27.406-28.427 49.226l.046.066-.046.066c-15.34 21.819 1.862 51.606 28.427 49.224l.074-.007c11.222 24.202 45.627 24.202 56.848 0z" fill="#fbe29f"/><circle cx="107.526" cy="67.435" fill="#ff889e" r="25.147"/><path d="m361.05 116.719-.074.006c-26.566 2.381-43.767-27.405-28.427-49.225l.046-.066-.046-.066c-15.34-21.819 1.862-51.606 28.427-49.224l.074.007c11.221-24.202 45.626-24.202 56.848 0l.074-.007c26.566-2.381 43.767 27.405 28.427 49.224l-.046.066.046.066c15.34 21.819-1.862 51.606-28.427 49.224l-.074-.007c-11.222 24.204-45.627 24.204-56.848.002z" fill="#fbe29f"/><circle cx="389.474" cy="67.435" fill="#ff889e" r="25.147"/><path d="m177.785 367.873c-42.868-41.717-69.507-100.028-69.507-164.569 0-9.908.628-19.669 1.845-29.246h-28.714c-.002.008-.003.015-.005.023-1.344-.133-2.751-.211-4.248-.211-26.721 0-48.382 21.661-48.382 48.382s21.661 48.382 48.382 48.382c3.837 0 7.143-.46 10.016-1.305 15.741 43.582 48.834 79.258 90.613 98.544z" fill="#ffcabd"/><ellipse cx="147.842" cy="250.603" fill="#ff9db0" rx="37.141" ry="29.577"/><g><g><path d="m169.487 229.632c-4.142 0-7.5-3.357-7.5-7.5v-15.184c0-4.143 3.358-7.5 7.5-7.5s7.5 3.357 7.5 7.5v15.184c0 4.142-3.358 7.5-7.5 7.5z" fill="#423e4f"/></g><g><path d="m327.513 229.632c-4.142 0-7.5-3.357-7.5-7.5v-15.184c0-4.143 3.358-7.5 7.5-7.5s7.5 3.357 7.5 7.5v15.184c0 4.142-3.358 7.5-7.5 7.5z" fill="#423e4f"/></g><g><path d="m248.5 238.67c-10.15 0-19.804-4.396-26.485-12.063-2.722-3.123-2.396-7.86.726-10.582 3.122-2.721 7.86-2.396 10.582.727 3.832 4.396 9.364 6.918 15.177 6.918s11.346-2.521 15.178-6.918c2.721-3.123 7.459-3.449 10.582-.726 3.123 2.721 3.448 7.459.726 10.581-6.682 7.666-16.336 12.063-26.486 12.063z" fill="#423e4f"/></g></g></g></svg>