<svg id="Capa_1" enable-background="new 0 0 497 497" height="512" viewBox="0 0 497 497" width="512" xmlns="http://www.w3.org/2000/svg"><g><circle cx="143.985" cy="352.109" fill="#4f4c5f" r="67.842"/><circle cx="353.015" cy="352.109" fill="#5c586f" r="67.842"/><path d="m314.646 497h-132.292l-44.827-48.637c13.77-45.85 43.52-65.873 43.56-65.954h134.826c.04.081 29.79 20.103 43.56 65.954z" fill="#fccb88"/><path d="m366.323 497h-51.677v-48.637h44.827c4.155 13.811 6.85 29.973 6.85 48.637z" fill="#da9d81"/><path d="m182.354 448.363v48.637h-51.677c0-18.664 2.695-34.826 6.85-48.637z" fill="#da9d81"/><g><path d="m218.508 453.897c-.915 0-1.844-.168-2.746-.523-3.854-1.518-5.748-5.873-4.23-9.727l22.897-58.144c1.518-3.855 5.873-5.751 9.727-4.23 3.854 1.518 5.748 5.873 4.23 9.727l-22.897 58.144c-1.163 2.952-3.99 4.753-6.981 4.753z" fill="#fff"/></g><g><path d="m278.493 453.897c-2.991 0-5.818-1.802-6.98-4.754l-22.899-58.143c-1.518-3.854.376-8.209 4.23-9.727 3.853-1.521 8.209.376 9.727 4.23l22.898 58.144c1.518 3.854-.376 8.209-4.23 9.727-.902.355-1.832.523-2.746.523z" fill="#fff"/></g><path d="m440.934 24.65c-4.877-14.073-17.682-23.775-32.56-24.478-26.435-1.249-70.644 3.514-104.172 41.791l120.914 102.463c.001 0 37.952-55.907 15.818-119.776z" fill="#fccb88"/><path d="m56.066 24.65c4.877-14.073 17.682-23.775 32.56-24.478 26.435-1.249 70.644 3.514 104.172 41.791l-120.915 102.463s-37.951-55.907-15.817-119.776z" fill="#fccb88"/><path d="m408.999 41.409c-.995-3.557-4.254-6.033-7.947-6.035-.022 0-.043 0-.065 0-19.465 0-48.23 4.981-70.107 29.956l64.891 59.174c2.284-3.56 25.097-40.647 13.228-83.095z" fill="#ff9db0"/><path d="m88.001 41.409c.995-3.557 4.254-6.033 7.947-6.035h.065c19.465 0 48.23 4.981 70.107 29.956l-64.891 59.174c-2.284-3.56-25.097-40.647-13.228-83.095z" fill="#ff9db0"/><path d="m212.97 382.409h-31.882c-.041.081-29.79 20.103-43.561 65.954l20.726 22.487c.967-38.352 22.876-71.496 54.717-88.441z" fill="#fbc072"/><ellipse cx="248.5" cy="216.463" fill="#fbe29f" rx="191.237" ry="181.921"/><path d="m165.678 328.299c-31.767-17.109-53.396-50.692-53.396-89.238 0-33.26 16.111-62.828 40.937-81.309l61.648-20.004h67.267l61.648 20.004c24.827 18.481 40.937 48.049 40.937 81.309 0 38.546-21.629 72.129-53.396 89.238l-64.321 12.075h-37.003z" fill="#da9d81"/><g><g><path d="m173.18 245.831c-4.142 0-7.5-3.357-7.5-7.5v-14.473c0-4.143 3.358-7.5 7.5-7.5s7.5 3.357 7.5 7.5v14.473c0 4.143-3.358 7.5-7.5 7.5z" fill="#423e4f"/></g><g><path d="m323.82 245.831c-4.142 0-7.5-3.357-7.5-7.5v-14.473c0-4.143 3.358-7.5 7.5-7.5s7.5 3.357 7.5 7.5v14.473c0 4.143-3.358 7.5-7.5 7.5z" fill="#423e4f"/></g><g><path d="m248.5 254.447c-9.779 0-19.078-4.235-25.512-11.62-2.721-3.123-2.395-7.86.728-10.581 3.124-2.722 7.86-2.396 10.582.728 3.585 4.114 8.761 6.474 14.203 6.474 5.441 0 10.618-2.359 14.204-6.475 2.721-3.123 7.459-3.448 10.582-.727 3.123 2.722 3.448 7.459.727 10.582-6.437 7.384-15.736 11.619-25.514 11.619z" fill="#423e4f"/></g></g><g fill="#fff"><path d="m214.867 137.747-14.244 42.259c-6.436 19.107-33.472 19.107-39.908 0l-7.495-22.254c16.867-12.57 37.769-20.004 60.377-20.004h1.27z"/><path d="m343.781 157.751-7.495 22.254c-6.436 19.107-33.472 19.107-39.908 0l-14.244-42.259h1.271c22.607.001 43.509 7.436 60.376 20.005z"/><path d="m229.999 340.374h-16.403c-17.321 0-33.643-4.368-47.918-12.075l10.169-30.183c6.436-19.107 33.472-19.107 39.908 0z"/><path d="m331.322 328.299c-14.274 7.707-30.597 12.075-47.918 12.075h-16.403l14.244-42.259c6.436-19.107 33.472-19.107 39.908 0z"/></g><g><path d="m165.503 121.269c-4.142 0-7.5-3.357-7.5-7.5v-15.932c0-4.143 3.358-7.5 7.5-7.5s7.5 3.357 7.5 7.5v15.932c0 4.142-3.358 7.5-7.5 7.5z" fill="#423e4f"/></g><g><path d="m331.322 121.269c-4.142 0-7.5-3.357-7.5-7.5v-15.932c0-4.143 3.358-7.5 7.5-7.5s7.5 3.357 7.5 7.5v15.932c0 4.142-3.358 7.5-7.5 7.5z" fill="#423e4f"/></g><path d="m273.883 95.305c0 9.456-11.365 17.121-25.383 17.121s-25.383-7.666-25.383-17.121 11.365-11.201 25.383-11.201 25.383 1.745 25.383 11.201z" fill="#ff9db0"/><path d="m98.136 215.951c0-73.547 37.432-137.969 93.502-173.673-77.85 21.905-134.375 88.369-134.375 174.185 0 78.485 47.287 140.772 114.919 167.6-48.542-35.264-74.046-94.76-74.046-168.112z" fill="#fccb88"/><path d="m158.219 473.501c0-8.672 1.076-17.091 3.092-25.138h-23.784c-4.154 13.811-6.85 29.972-6.85 48.637h30.234c-1.759-7.549-2.692-15.415-2.692-23.499z" fill="#c7856a"/></g></svg>