<svg id="Capa_1" enable-background="new 0 0 497 497" height="512" viewBox="0 0 497 497" width="512" xmlns="http://www.w3.org/2000/svg"><g><path d="m318.058 377.685-22.402 48.842-47.156 20.716-49.767-20.716-19.791-48.842z" fill="#ffbe9c"/><path d="m220.374 475.369v14.332l-21.641 7.299h-85.958c0-42.725 18.24-74.62 34.59-94.64l51.368 24.167z" fill="#50e1cd"/><path d="m384.224 497h-129.22l40.652-70.473 53.979-24.157c16.36 20.02 34.589 51.915 34.589 94.63z" fill="#00d1b3"/><path d="m248.5 447.243-28.126 28.125-73.009-73.009c13.287-16.261 25.331-24.674 25.331-24.674h6.246z" fill="#d8d8d8"/><path d="m199.161 454.156 21.213 21.213 28.126-28.126-21.213-21.213-28.121 28.121z" fill="#cacac8"/><path d="m349.634 402.37-94.63 94.63h-56.271l21.641-21.631 28.126-28.125 69.558-69.558h6.246c0-.001 12.043 8.413 25.33 24.684z" fill="#d8d8d8"/><g><path d="m152.651 497v-38.054c0-4.143 3.358-7.5 7.5-7.5s7.5 3.357 7.5 7.5v38.054z" fill="#00d1b3"/></g><g><path d="m329.349 497v-38.054c0-4.143 3.358-7.5 7.5-7.5s7.5 3.357 7.5 7.5v38.054z" fill="#50e1cd"/></g><path d="m67.446 157.432c-11.519 25.162-17.949 53.12-17.949 82.555h398.007c0-29.434-6.431-57.393-17.949-82.555l-181.055-26.332z" fill="#5c586f"/><path d="m116.828 227.644c0-27.807 4.437-54.477 12.561-79.221l-61.943 9.009c-11.519 25.162-17.95 53.121-17.95 82.555h67.627c-.194-4.088-.295-8.202-.295-12.343z" fill="#4f4c5f"/><circle cx="410.706" cy="249.932" fill="#ffbe9c" r="43.74"/><path d="m424.603 104.775-176.103 26.325-176.103-26.325s9.378-22.884 32.949-47.26l143.154-16.532 143.154 16.531c23.57 24.376 32.949 47.261 32.949 47.261z" fill="#ff889e"/><path d="m194.342 47.237-88.995 10.277c-23.571 24.376-32.949 47.26-32.949 47.26l70.599 10.554c13.065-26.123 30.545-49.222 51.345-68.091z" fill="#ff748f"/><path d="m391.654 57.514h-286.308c26.873-27.787 72.204-57.514 143.154-57.514s116.281 29.727 143.154 57.514z" fill="#fccb88"/><path d="m108.858 157.432c-14.329 24.185-22.564 52.406-22.564 82.555 0 89.584 72.622 162.206 162.206 162.206s162.206-72.622 162.206-162.206c0-30.149-8.235-58.37-22.564-82.555l-139.642-26.332z" fill="#ffd3bc"/><path d="m479.246 136.421c-7.194-19.046-25.427-31.649-45.785-31.649h-369.921c-20.359 0-38.592 12.603-45.785 31.649-3.836 10.155 3.668 21.011 14.524 21.011h432.443c10.855 0 18.359-10.856 14.524-21.011z" fill="#fccb88"/><path d="m169.709 381.791c-32.922-41.187-52.881-95.112-52.881-154.147 0-25.772 3.813-50.567 10.838-73.758l-18.807 3.546c-8.848 14.934-15.363 31.41-19.06 48.925-1.111-.101-2.268-.165-3.504-.165-24.157 0-43.74 19.583-43.74 43.74s19.583 43.74 43.74 43.74c3.372 0 6.25-.394 8.732-1.117 13.068 38.152 39.944 69.893 74.682 89.236z" fill="#ffbe9c"/><path d="m148.615 104.772h-85.075c-20.359 0-38.592 12.603-45.785 31.649-3.836 10.156 3.668 21.011 14.524 21.011h94.336c5.352-18.671 12.788-36.329 22-52.66z" fill="#fbc072"/><path d="m275.119 1.477c-8.446-.953-17.306-1.477-26.619-1.477-70.95 0-116.281 29.727-143.154 57.514h78.402c25.375-26.284 56.627-45.827 91.371-56.037z" fill="#fbc072"/><g><g><g><ellipse cx="146.68" cy="265.344" fill="#ff9db0" rx="37.569" ry="29.918"/></g><g><ellipse cx="350.32" cy="265.344" fill="#ff9db0" rx="37.569" ry="29.918"/></g></g></g><g><g><path d="m168.576 244.044c-4.142 0-7.5-3.357-7.5-7.5v-15.358c0-4.143 3.358-7.5 7.5-7.5s7.5 3.357 7.5 7.5v15.358c0 4.142-3.358 7.5-7.5 7.5z" fill="#423e4f"/></g><g><path d="m328.424 244.044c-4.142 0-7.5-3.357-7.5-7.5v-15.358c0-4.143 3.358-7.5 7.5-7.5s7.5 3.357 7.5 7.5v15.358c0 4.142-3.357 7.5-7.5 7.5z" fill="#423e4f"/></g><g><path d="m248.5 253.186c-10.243 0-19.984-4.437-26.726-12.172-2.721-3.123-2.396-7.86.727-10.582s7.859-2.396 10.582.727c3.892 4.466 9.511 7.027 15.417 7.027s11.525-2.562 15.417-7.027c2.722-3.123 7.459-3.447 10.582-.727 3.123 2.722 3.448 7.459.727 10.582-6.742 7.736-16.483 12.172-26.726 12.172z" fill="#423e4f"/></g></g></g></svg>