<svg id="Capa_1" enable-background="new 0 0 497 497" height="512" viewBox="0 0 497 497" width="512" xmlns="http://www.w3.org/2000/svg"><g><g fill="#d8d8d8"><path d="m172.337 370.76 17.829 61.208-17.829 65.032h-54.136c0-73.964 39.994-114.285 54.136-126.24z"/><path d="m378.799 497h-54.136l-17.829-65.032 17.829-61.208c14.142 11.955 54.136 52.276 54.136 126.24z"/><path d="m289.005 366.936 17.829 65.032-17.829 65.032h-81.01l-17.829-65.032 17.829-65.032z"/></g><path d="m39.487 209.013h418.026c0-115.25-93.763-209.013-209.013-209.013h-142.407c-13.898 0-23.572 14.014-18.415 26.92 3.559 8.908 9.783 18.716 20.592 27.237-42.222 38.269-68.783 93.518-68.783 154.856z" fill="#e7886e"/><path d="m207.995 366.936v130.064h-35.658v-126.24c3.037-2.567 4.888-3.824 4.888-3.824z" fill="#5c586f"/><path d="m324.663 370.76v126.24h-35.658v-130.064h30.77s1.851 1.258 4.888 3.824z" fill="#5c586f"/><g><circle cx="421.722" cy="219.239" fill="#ffcabd" r="48.912"/></g><path d="m39.487 209.013h66.795c.562-76.744 62.224-173.203 135.209-209.013h-135.398c-13.898 0-23.572 14.014-18.415 26.92 3.56 8.908 9.783 18.716 20.592 27.237-42.222 38.269-68.783 93.518-68.783 154.856z" fill="#e27858"/><path d="m395.681 117.641c-12.465-20.031-34.313-32.292-57.906-32.334-19.864-.035-42.085 3.115-62.705 13.161-16.813 8.191-36.326 8.191-53.139 0-20.621-10.047-42.843-13.196-62.707-13.161-23.31.042-45.076 11.925-57.482 31.659-16.764 26.666-26.463 58.222-26.463 92.046 0 95.69 76.867 172.862 172.556 173.221 95.973.361 173.887-77.331 173.887-173.221 0-33.539-9.536-64.848-26.041-91.371z" fill="#ffd8d2"/><circle cx="248.5" cy="433.88" fill="#5c586f" r="6.458"/><circle cx="248.5" cy="465.253" fill="#5c586f" r="6.458"/><path d="m324.663 370.76c-3.037-2.567-4.888-3.824-4.888-3.824h-30.77v69.093c7.729 3.407 15.129 5.093 22.307 5.094h.01c4.667 0 9.142-.748 13.341-2.159z" fill="#4f4c5f"/><path d="m264.111 385.718s68.543 76.938 68.543-13.959-68.543-13.959-68.543-13.959z" fill="#ff748f"/><path d="m106.266 210.072c0-39.644 16.456-84.671 42.436-123.931-19.204 3.016-36.445 14.099-46.961 30.825-10.21 16.241-17.793 34.298-22.167 53.574-1.36-.135-2.783-.213-4.296-.213-27.014 0-48.912 21.899-48.912 48.912s21.899 48.912 48.912 48.912c3.756 0 7.01-.438 9.857-1.239 23.654 67.1 87.333 115.038 162.699 115.321 1.066.004 2.126-.013 3.188-.028-82.041-13.213-144.756-85.244-144.756-172.133z" fill="#ffcabd"/><path d="m144.212 474.073c0-35.046 13.184-66.071 33.43-85.099l-5.306-18.214c-14.143 11.954-54.136 52.275-54.136 126.24h27.944c-1.261-7.38-1.932-15.05-1.932-22.927z" fill="#cacac8"/><path d="m172.337 370.76v68.203c4.201 1.412 8.677 2.16 13.346 2.16 7.18 0 14.582-1.685 22.312-5.093v-69.095h-30.77c0 .001-1.851 1.259-4.888 3.825z" fill="#4f4c5f"/><path d="m232.889 385.718s-68.543 76.938-68.543-13.959 68.543-13.959 68.543-13.959z" fill="#ff748f"/><path d="m253.707 342.981h-10.414c-15.894 0-28.778 12.884-28.778 28.778 0 15.894 12.884 28.778 28.778 28.778h10.414c15.894 0 28.778-12.884 28.778-28.778 0-15.894-12.884-28.778-28.778-28.778z" fill="#ff889e"/><circle cx="162.22" cy="205.279" fill="#ffe7e5" r="57.944"/><circle cx="334.78" cy="205.279" fill="#ffe7e5" r="57.944"/><g><g><path d="m162.22 221.251c-4.142 0-7.5-3.357-7.5-7.5v-16.944c0-4.143 3.358-7.5 7.5-7.5s7.5 3.357 7.5 7.5v16.944c0 4.142-3.358 7.5-7.5 7.5z" fill="#423e4f"/></g><g><path d="m334.781 221.251c-4.142 0-7.5-3.357-7.5-7.5v-16.944c0-4.143 3.358-7.5 7.5-7.5s7.5 3.357 7.5 7.5v16.944c0 4.142-3.358 7.5-7.5 7.5z" fill="#423e4f"/></g></g><path d="m334.78 139.834c-30.899 0-56.846 21.531-63.673 50.374-7.078-3.089-14.734-4.699-22.607-4.699-7.875 0-15.529 1.611-22.607 4.699-6.827-28.842-32.775-50.374-63.673-50.374-36.086 0-65.444 29.358-65.444 65.444s29.358 65.444 65.444 65.444c35.807 0 64.975-28.911 65.423-64.614 6.319-3.67 13.454-5.601 20.857-5.601 7.401 0 14.538 1.93 20.857 5.601.448 35.703 29.616 64.614 65.423 64.614 36.086 0 65.444-29.358 65.444-65.444s-29.358-65.444-65.444-65.444zm-172.56 115.889c-27.815 0-50.444-22.629-50.444-50.444s22.629-50.444 50.444-50.444 50.444 22.629 50.444 50.444-22.629 50.444-50.444 50.444zm172.56 0c-27.815 0-50.444-22.629-50.444-50.444s22.629-50.444 50.444-50.444 50.444 22.629 50.444 50.444-22.629 50.444-50.444 50.444z" fill="#5c586f"/><path d="m248.5 287.536c24.746 30.932 61.207 18.114 80.436 7.955 4.664-2.464 4.996-8.941.675-11.965-11.023-7.713-17.441-24.602-26.546-33.088-14.146-13.184-38.516-21.193-54.565-6.642-16.049-14.551-40.419-6.542-54.565 6.642-9.105 8.486-15.523 25.375-26.546 33.088-4.322 3.024-3.989 9.501.675 11.965 19.229 10.159 55.69 22.977 80.436-7.955z" fill="#e7886e"/></g></svg>