<svg id="Capa_1" enable-background="new 0 0 497 497" height="512" viewBox="0 0 497 497" width="512" xmlns="http://www.w3.org/2000/svg"><g><path d="m453.66 205.16c0-113.125-92.034-205.16-205.16-205.16s-205.16 92.035-205.16 205.16c0 113.772 42.641 101.495 25.309 181.655-11.555 52.718 83.049 74.383 83.049 74.383h193.604s94.604-21.665 83.049-74.383c-17.332-80.16 25.309-67.883 25.309-181.655z" fill="#b08bd7"/><path d="m323.213 405.003c-114.426 0-207.186-94.025-207.186-210.011 0-88.35 53.828-163.947 130.051-194.961-112.013 1.305-202.738 92.814-202.738 205.129 0 113.771 42.641 101.495 25.309 181.655-11.555 52.718 83.049 74.383 83.049 74.383h193.604z" fill="#a47cd1"/><path d="m211.028 497h74.944l26.315-66.737-26.315-94.89h-74.944l-26.315 94.89z" fill="#50e1cd"/><path d="m367.291 399.319s34.948 30.944 34.948 97.681h-70.35l-19.602-66.736z" fill="#ff889e"/><path d="m129.709 399.319s-34.948 30.944-34.948 97.681h70.35l19.602-66.736z" fill="#ff889e"/><path d="m361.89 497c0-30.697 13.199-56.329 23.849-72.015-9.049-17.32-18.447-25.666-18.447-25.666l-55.004 30.944 19.602 66.737z" fill="#ff748f"/><path d="m365.245 368.764-33.392-33.392h-45.881v161.628h45.918c0-44.138 20.979-78.958 35.402-97.681 7.107-9.227 6.189-22.319-2.047-30.555z" fill="#fbe29f"/><path d="m111.261 424.985c10.65 15.686 23.849 41.318 23.849 72.014h30l19.602-66.737-55.004-30.944c.001.002-9.397 8.347-18.447 25.667z" fill="#ff748f"/><path d="m131.755 368.764 33.392-33.392h45.881v161.628h-45.918c0-44.138-20.979-78.958-35.402-97.681-7.107-9.227-6.189-22.319 2.047-30.555z" fill="#fbe29f"/><path d="m417.395 204.919c-.05-12.621-9.784-23.068-22.357-24.16-73.712-6.402-134.105-45.346-165.464-69.872-12.677-9.915-30.933-8.523-41.79 3.357-32.072 35.095-71.856 54.208-92.553 62.436-8.783 3.492-14.782 11.728-15.354 21.162-.163 2.679-.272 5.252-.272 7.318 0 93.279 75.617 168.896 168.896 168.896s168.896-75.617 168.896-168.896c-.001-.079-.001-.16-.002-.241z" fill="#ffd3bc"/><path d="m116.027 194.992c0-9.712.665-19.265 1.924-28.626-8.78 4.478-16.591 7.878-22.72 10.314-8.783 3.492-14.781 11.728-15.354 21.162-.163 2.679-.272 5.252-.272 7.318 0 78.988 54.225 145.303 127.478 163.772-54.948-37.766-91.056-101.577-91.056-173.94z" fill="#ffbe9c"/><g><g><g><ellipse cx="147.414" cy="250.46" fill="#ff9db0" rx="37.299" ry="29.703"/></g><g><ellipse cx="349.586" cy="250.46" fill="#ff9db0" rx="37.299" ry="29.703"/></g></g></g><g><g><path d="m169.152 229.367c-4.142 0-7.5-3.357-7.5-7.5v-15.247c0-4.143 3.358-7.5 7.5-7.5s7.5 3.357 7.5 7.5v15.247c0 4.142-3.358 7.5-7.5 7.5z" fill="#423e4f"/></g><g><path d="m327.848 229.367c-4.142 0-7.5-3.357-7.5-7.5v-15.247c0-4.143 3.358-7.5 7.5-7.5s7.5 3.357 7.5 7.5v15.247c0 4.142-3.358 7.5-7.5 7.5z" fill="#423e4f"/></g><g><path d="m248.5 238.443c-10.185 0-19.871-4.411-26.574-12.103-2.721-3.123-2.396-7.86.727-10.582 3.123-2.721 7.859-2.396 10.582.727 3.854 4.422 9.417 6.958 15.266 6.958s11.412-2.536 15.266-6.958c2.721-3.123 7.459-3.448 10.582-.727 3.123 2.722 3.448 7.459.727 10.582-6.705 7.692-16.391 12.103-26.576 12.103z" fill="#423e4f"/></g></g></g></svg>