<svg id="Capa_1" enable-background="new 0 0 497 497" height="512" viewBox="0 0 497 497" width="512" xmlns="http://www.w3.org/2000/svg"><g><circle cx="404.881" cy="68.941" fill="#ffa2e7" r="68.941"/><path d="m42.727 213.477c0-113.463 92.309-205.773 205.773-205.773s205.773 92.309 205.773 205.773z" fill="#ffb5ec"/><g><circle cx="419.037" cy="233.612" fill="#ffcabd" r="48.154"/></g><path d="m347.614 399.648c7.43 10.692 14.87 24.273 20.376 40.904l-50.105 56.448h-141.216l-47.659-56.448c5.547-16.732 13.037-30.384 20.517-41.105z" fill="#5c586f"/><path d="m241.789 415.053c13.359-4.277 28.747-.996 39.533 9.791 7.485 7.485 11.356 17.187 11.595 26.888.199 8.08-6.369 14.649-14.45 14.45-9.702-.239-19.403-4.11-26.888-11.595-10.785-10.787-14.067-26.175-9.79-39.534z" fill="#ff748f"/><path d="m252.77 415.053c-13.359-4.277-28.747-.996-39.533 9.791-7.485 7.485-11.356 17.187-11.595 26.888-.199 8.08 6.369 14.649 14.45 14.45 9.702-.239 19.403-4.11 26.888-11.595 10.785-10.787 14.067-26.175 9.79-39.534z" fill="#ff889e"/><path d="m153.534 461.598c0-23.867 7.487-45.635 19.795-62.128l-23.802-.024c-7.48 10.722-14.97 24.373-20.518 41.105l24.603 29.14c-.053-2.667-.078-5.365-.078-8.093z" fill="#4f4c5f"/><path d="m347.614 399.648c-30.152 16.098-63.969 24.635-99.104 24.635h-1.51c-35.156-.242-68.338-9.212-97.473-24.836 14.437-20.709 28.803-30.494 28.803-30.494h140.34c0-.001 14.457 9.845 28.944 30.695z" fill="#d8d8d8"/><path d="m150.624 32.483c-12.178-19.501-33.82-32.483-58.505-32.483-38.075 0-68.941 30.866-68.941 68.941 0 26.624 15.099 49.709 37.195 61.194-11.337 25.49-17.646 53.692-17.646 83.342h70.83c-4.168-18.496-6.346-37.547-6.346-56.651 0-46.575 16.139-89.584 43.411-124.315z" fill="#ffa2e7"/><g fill="#ffd8d2"><path d="m141.413 345.978c-38.538-31.249-63.304-78.899-63.445-132.035-.03-11.467 1.067-22.662 3.191-33.504 3.876-19.692 21.333-33.776 41.407-33.776h251.857c20.215 0 37.632 14.306 41.488 34.139 2.054 10.581 3.121 21.504 3.121 32.679 0 53.599-24.726 101.419-63.395 132.679z"/><path d="m157.518 440.552h-28.508c-5.285 15.967-8.789 34.733-8.789 56.448h56.448v-37.297c0-10.577-8.574-19.151-19.151-19.151z"/><path d="m367.991 440.552h-30.955c-10.577 0-19.151 8.574-19.151 19.151v37.297h58.895c-.001-21.716-3.504-40.481-8.789-56.448z"/></g><path d="m107.211 156.825c0-2.459.062-4.904.151-7.342-13.167 5.05-23.354 16.484-26.203 30.956-.33 1.683-.626 3.378-.906 5.077-.747-.037-1.508-.059-2.29-.059-26.595 0-48.154 21.559-48.154 48.154s21.559 48.154 48.154 48.154c5.176 0 9.585-.826 13.342-2.338 11.027 26.093 28.376 48.929 50.107 66.55l52.505.044c-54.72-43.115-86.706-115.779-86.706-189.196z" fill="#ffcabd"/><path d="m222.559 368.952h-44.229s-14.366 9.786-28.803 30.494c5.876 3.151 11.924 6.017 18.112 8.61 12.489-21.299 32.227-36.047 54.92-39.104z" fill="#cacac8"/><path d="m355.638 346.159c-29.578 23.91-67.301 38.135-108.356 37.854-40.018-.272-76.845-14.507-105.869-38.035 4.752-15.907 10.007-31.179 15.162-44.971 7.168-19.178 19.913-35.135 35.981-46.29 16.068-11.145 35.468-17.507 55.945-17.507 40.954 0 77.59 25.43 91.926 63.797 5.174 13.853 10.449 29.175 15.211 45.152z" fill="#5c586f"/><path d="m307.516 313.601c-.033-.087-.065-.174-.098-.261-9.139-24.46-32.817-40.894-58.918-40.894-12.875 0-25.276 3.881-35.851 11.216-10.58 7.344-18.556 17.608-23.069 29.681-.023.062-.046.124-.069.185-4.063 10.879 1.543 22.984 12.436 27.01 14.438 5.336 29.771 8.133 45.576 8.241l.953.003c16.16 0 31.809-2.765 46.509-8.14 10.943-4.001 16.604-16.126 12.531-27.041z" fill="#6a647f"/><g><g><path d="m162.63 232.387c-4.142 0-7.5-3.357-7.5-7.5v-16.501c0-4.143 3.358-7.5 7.5-7.5s7.5 3.357 7.5 7.5v16.501c0 4.142-3.358 7.5-7.5 7.5z" fill="#423e4f"/></g><g><path d="m334.37 232.387c-4.142 0-7.5-3.357-7.5-7.5v-16.501c0-4.143 3.358-7.5 7.5-7.5s7.5 3.357 7.5 7.5v16.501c0 4.142-3.358 7.5-7.5 7.5z" fill="#423e4f"/></g></g><path d="m153.534 461.598c0-7.238.688-14.283 1.99-21.046h-26.515c-5.285 15.967-8.789 34.733-8.789 56.448h35.538c-1.736-10.917-2.224-22.869-2.224-35.402z" fill="#ffcabd"/></g></svg>