<svg id="Capa_1" enable-background="new 0 0 497 497" height="512" viewBox="0 0 497 497" width="512" xmlns="http://www.w3.org/2000/svg"><g><path d="m445.941 141.959-197.441 25.671-197.441-25.671c27.756-82.432 105.777-141.959 197.441-141.959s169.685 59.527 197.441 141.959z" fill="#6a647f"/><path d="m265.017 363.967h58.08s65.437 37.018 65.437 133.033h-37.701z" fill="#ff889e"/><path d="m146.167 497h-37.701c0-96.015 65.437-133.033 65.437-133.033h58.08z" fill="#ff889e"/><path d="m248.5 440.673 21.169 28.164-21.169 28.163h-102.333c0-21.703 4.381-40.391 11.178-56.327l49.027-16.933z" fill="#6a647f"/><path d="m350.832 497h-102.332v-56.327l37.247-21.362 53.908 21.362c6.796 15.936 11.177 34.624 11.177 56.327z" fill="#5c586f"/><path d="m248.5 363.967 21.169 40.696-21.169 36.01h-91.155c23.242-54.534 74.638-76.706 74.638-76.706z" fill="#50e1cd"/><path d="m339.655 440.673h-91.155v-76.706h16.517s51.396 22.172 74.638 76.706z" fill="#00d1b3"/><path d="m199.175 5.906c-69.531 16.95-125.504 68.898-148.116 136.053l57.058 7.418c8.648-62.062 34.638-113.919 91.058-143.471z" fill="#5c586f"/><path d="m456.762 208.272h-416.524c0-23.171 3.801-45.475 10.821-66.313h394.882c7.02 20.838 10.821 43.142 10.821 66.313z" fill="#e7886e"/><g><circle cx="421.103" cy="233.742" fill="#ffbd86" r="48.738"/></g><path d="m89.103 141.958c-8.503 20.417-13.207 42.813-13.207 66.31 0 95.326 77.277 172.603 172.603 172.603s172.603-77.277 172.603-172.603c0-23.497-4.703-45.893-13.207-66.31z" fill="#fed2a4"/><path d="m289.716 72.804c.071.948.102 1.905.102 2.863 0 22.814-18.504 31.119-41.318 31.119s-41.318-8.304-41.318-31.119c0-.958.031-1.916.102-2.863z" fill="#fccb88"/><path d="m289.716 72.804c-11.524 3.087-25.779 4.432-41.216 4.432s-29.692-1.345-41.216-4.432c1.467-21.49 19.36-38.455 41.216-38.455s39.749 16.965 41.216 38.455z" fill="#fbe29f"/><g><path d="m165.095 81.974c-4.142 0-7.5-3.357-7.5-7.5v-16.026c0-4.143 3.358-7.5 7.5-7.5s7.5 3.357 7.5 7.5v16.026c0 4.143-3.358 7.5-7.5 7.5z" fill="#423e4f"/></g><g><path d="m331.905 81.974c-4.142 0-7.5-3.357-7.5-7.5v-16.026c0-4.143 3.358-7.5 7.5-7.5s7.5 3.357 7.5 7.5v16.026c0 4.143-3.358 7.5-7.5 7.5z" fill="#423e4f"/></g><path d="m171.045 362.547c-41.003-40.6-66.41-96.921-66.41-159.183 0-21.293 1.392-41.892 4.598-61.406h-20.13c-5.653 13.573-9.614 28.023-11.643 43.087-.517-.017-1.027-.04-1.564-.04-26.917 0-48.738 21.821-48.738 48.738s21.822 48.737 48.739 48.737c6.344 0 11.28-1.225 15.141-3.431 16.288 36.174 44.675 65.724 80.007 83.498z" fill="#ffbd86"/><g><g><g><ellipse cx="146.211" cy="253.705" fill="#ff9db0" rx="37.742" ry="30.056"/></g><g><ellipse cx="350.789" cy="253.705" fill="#ff9db0" rx="37.742" ry="30.056"/></g></g></g><g><g><path d="m168.208 232.272c-4.142 0-7.5-3.357-7.5-7.5v-15.429c0-4.143 3.358-7.5 7.5-7.5s7.5 3.357 7.5 7.5v15.429c0 4.143-3.358 7.5-7.5 7.5z" fill="#423e4f"/></g><g><path d="m328.792 232.272c-4.142 0-7.5-3.357-7.5-7.5v-15.429c0-4.143 3.358-7.5 7.5-7.5s7.5 3.357 7.5 7.5v15.429c0 4.143-3.358 7.5-7.5 7.5z" fill="#423e4f"/></g><g><path d="m248.5 241.457c-10.28 0-20.057-4.452-26.823-12.216-2.721-3.123-2.396-7.86.727-10.582 3.122-2.721 7.86-2.396 10.582.727 3.917 4.494 9.572 7.071 15.515 7.071s11.598-2.577 15.514-7.071c2.721-3.123 7.459-3.448 10.582-.727 3.123 2.722 3.448 7.459.727 10.582-6.767 7.763-16.543 12.216-26.824 12.216z" fill="#423e4f"/></g></g></g></svg>