<svg id="Capa_1" enable-background="new 0 0 497 497" height="512" viewBox="0 0 497 497" width="512" xmlns="http://www.w3.org/2000/svg"><g><path d="m101.72 256.814h-41.724s-.762 20.339-18.862 43.605c-9.453 12.152-7.908 29.647 3.629 39.842 15.935 14.081 41.923 30.33 79.877 34.887l42.981-31.725v-32.33z" fill="#e7886e"/><path d="m395.279 256.814h41.724s.762 20.339 18.862 43.605c9.453 12.152 7.908 29.647-3.629 39.842-15.935 14.081-41.923 30.33-79.877 34.887l-42.98-31.725v-32.33z" fill="#e7886e"/><path d="m158.169 450.553-36.596-15.736c-5.875 19.681-8.898 40.586-8.898 62.184h39.536z" fill="#d8d8d8"/><path d="m338.831 450.553 36.596-15.736c5.875 19.681 8.898 40.586 8.898 62.184h-39.536z" fill="#d8d8d8"/><circle cx="159.635" cy="396.711" fill="#50e1cd" r="53.879"/><circle cx="337.365" cy="396.711" fill="#50e1cd" r="53.879"/><path d="m200.092 378.959c-16.125 15.162-47.882 53.243-47.882 118.041h192.579c0-64.797-31.756-102.879-47.882-118.041z" fill="#ff889e"/><path d="m440.313 154.207c6.615 20.582 10.209 42.295 10.209 64.441h-404.043c0-22.146 3.593-43.859 10.209-64.44v-24.676h380.932z" fill="#e7886e"/><g><circle cx="415.928" cy="238.416" fill="#ffcabd" r="47.276"/></g><path d="m200.068 359.191v41.267c0 13.374 10.842 24.216 24.216 24.216 13.374 0 24.216-10.842 24.216-24.216v-41.267z" fill="#fbe29f"/><path d="m296.932 359.191v41.267c0 13.374-10.842 24.216-24.216 24.216-13.374 0-24.216-10.842-24.216-24.216v-41.267z" fill="#fccb88"/><path d="m315.282 148.406c-6.737-5.693-16.519-5.693-23.258 0-12.608 10.654-28.068 15.981-43.523 15.982-15.459.001-30.913-5.326-43.525-15.983-6.738-5.693-16.519-5.694-23.257 0-24.786 20.943-60.564 21.289-85.729 1.067-9.58 21.086-14.918 44.507-14.918 69.176 0 92.468 74.96 167.428 167.428 167.428s167.428-74.96 167.428-167.428c0-24.669-5.338-48.091-14.918-69.177-25.164 20.223-60.944 19.877-85.728-1.065z" fill="#ffd8d2"/><path d="m387.023 51.406c16.585 13.758 31.352 29.81 43.855 47.581l6.741 30.541h-380.936l9.439-30.541c12.503-17.771 27.27-33.823 43.855-47.581l50.961-32.142c26.964-12.335 56.546-19.264 87.562-19.264s60.598 6.929 87.562 19.264z" fill="#ff889e"/><path d="m195.744 6.835c-11.994 3.147-23.628 7.315-34.806 12.429l-50.961 32.142c-16.585 13.759-31.352 29.81-43.855 47.581l-9.439 30.541h69.788c10.763-46.18 33.36-91.731 69.273-122.693z" fill="#ff748f"/><path d="m197.686 378.215c-47.595-40.836-78.709-108.398-78.709-184.845 0-10.17.613-20.662 1.839-31.296-8.838-2.369-17.307-6.56-24.826-12.603-5.949 13.094-10.259 27.09-12.674 41.725-.736-.036-1.482-.057-2.244-.057-26.11 0-47.276 21.166-47.276 47.276s21.166 47.276 47.276 47.276c4.868 0 9.215-.738 13.069-2.104 18.894 44.848 56.757 79.741 103.545 94.628z" fill="#ffcabd"/><path d="m248.5 164.388c-15.459.001-30.913-5.326-43.525-15.983-6.738-5.693-16.519-5.694-23.257 0-25.22 21.31-61.83 21.311-87.05 0-6.738-5.693-16.519-5.693-23.257 0-10.423 8.81-26.015 7.498-34.822-2.926-8.808-10.424-7.498-26.014 2.926-34.822 25.219-21.31 61.829-21.31 87.049 0 6.738 5.693 16.519 5.694 23.257 0 25.22-21.31 61.83-21.31 87.05 0 6.739 5.694 16.52 5.694 23.257 0 25.219-21.31 61.828-21.311 87.05 0 6.738 5.694 16.52 5.693 23.256 0 25.22-21.309 61.829-21.31 87.05 0 10.424 8.808 11.734 24.398 2.927 34.822-8.808 10.422-24.398 11.734-34.821 2.927-6.739-5.694-16.52-5.692-23.259 0-25.218 21.31-61.829 21.309-87.048 0-6.737-5.693-16.519-5.693-23.258 0-12.609 10.653-28.069 15.981-43.525 15.982z" fill="#50e1cd"/><g fill="#fbe29f"><path d="m168.658 39.546c0 16.872-13.669 30.541-30.541 30.541-12.661 0-23.514-7.7-28.14-18.681 15.518-12.889 32.637-23.771 50.961-32.142 4.804 5.396 7.72 12.493 7.72 20.282z"/><path d="m387.023 51.406c-4.626 10.981-15.478 18.681-28.139 18.681-16.872 0-30.541-13.669-30.541-30.541 0-7.789 2.916-14.885 7.719-20.282 18.324 8.371 35.443 19.254 50.961 32.142z"/><circle cx="248.5" cy="54.374" r="25.764"/></g><path d="m130.754 113.308c-1.48-.674-2.892-1.554-4.189-2.65-25.219-21.31-61.829-21.31-87.049 0-10.424 8.808-11.734 24.398-2.926 34.822 8.807 10.424 24.398 11.736 34.822 2.926 6.738-5.693 16.519-5.693 23.257 0 7.842 6.626 16.785 11.189 26.145 13.695 1.859-16.139 5.15-32.606 9.94-48.793z" fill="#00d1b3"/><g><g><g><ellipse cx="150.543" cy="259.601" fill="#ff9db0" rx="36.144" ry="28.783"/></g><g><ellipse cx="346.457" cy="259.601" fill="#ff9db0" rx="36.144" ry="28.783"/></g></g></g><g><g><path d="m171.608 239.393c-4.142 0-7.5-3.357-7.5-7.5v-14.775c0-4.143 3.358-7.5 7.5-7.5s7.5 3.357 7.5 7.5v14.775c0 4.143-3.358 7.5-7.5 7.5z" fill="#423e4f"/></g><g><path d="m325.392 239.393c-4.142 0-7.5-3.357-7.5-7.5v-14.775c0-4.143 3.358-7.5 7.5-7.5s7.5 3.357 7.5 7.5v14.775c0 4.143-3.358 7.5-7.5 7.5z" fill="#423e4f"/></g><g><path d="m248.5 248.189c-9.937 0-19.387-4.304-25.926-11.808-2.721-3.123-2.396-7.86.727-10.582 3.123-2.721 7.86-2.396 10.582.727 3.69 4.234 9.018 6.663 14.618 6.663s10.928-2.429 14.618-6.663c2.721-3.122 7.459-3.448 10.582-.727 3.123 2.722 3.448 7.459.727 10.582-6.541 7.504-15.991 11.808-25.928 11.808z" fill="#423e4f"/></g></g></g></svg>