<svg id="Capa_1" enable-background="new 0 0 497 497" height="512" viewBox="0 0 497 497" width="512" xmlns="http://www.w3.org/2000/svg"><g><path d="m208.498 497h77.488l19.075-31.75v-56.783l-19.075-34.207h-77.488l-19.075 34.207v56.783z" fill="#ff889e"/><circle cx="247.242" cy="382.961" fill="#ffbe9c" r="59.495"/><path d="m151.713 408.467s-39.052 23.812-39.052 88.533h58.825l17.938-31.75v-56.783z" fill="#b08bd7"/><path d="m342.771 408.467s39.052 23.812 39.052 88.533h-58.825l-17.938-31.75v-56.783z" fill="#b08bd7"/><path d="m121.744 447.726c16.41 13.658 24.741 30.216 24.741 49.274h25l17.938-31.75v-56.783h-37.71s-18.431 11.239-29.969 39.259z" fill="#a47cd1"/><path d="m131.482 382.45c-12.348 12.348-10.927 32.661 2.889 43.341 17.805 13.764 37.115 36.656 37.115 71.209h37.013v-122.74h-57.243c-7.417 0-14.53 2.946-19.774 8.19z" fill="#ffb5ec"/><path d="m342.771 408.467h-37.711v56.783l17.939 31.75h25c0-19.058 8.331-35.616 24.742-49.274-11.539-28.02-29.97-39.259-29.97-39.259z" fill="#a47cd1"/><path d="m363.002 382.45c12.348 12.348 10.927 32.661-2.889 43.341-17.805 13.764-37.115 36.656-37.115 71.209h-37.013v-122.74h57.243c7.417 0 14.53 2.946 19.774 8.19z" fill="#ffb5ec"/><path d="m54.853 117.56c-12.376 26.972-19.283 56.954-19.283 88.52h425.86c0-31.566-6.907-61.549-19.283-88.52l-100.179-39.679h-166.537z" fill="#b08bd7"/><path d="m103.61 192.856c0-35.194 6.893-68.386 19.083-97.621l-67.84 22.324c-12.376 26.972-19.283 56.954-19.283 88.52h68.379c-.216-4.374-.339-8.78-.339-13.223z" fill="#a47cd1"/><circle cx="424.972" cy="226.912" fill="#ffbe9c" r="49.83"/><path d="m442.147 117.56-1.638-9.456c-4.579-26.438-26.311-46.526-53.027-49.015l-18.246-1.7-.004-.015c-9.924-33.008-45.763-50.671-77.986-38.435l-.045-.049c-23.49-25.187-63.406-25.187-86.896 0l-.045.049c-32.223-12.236-68.061 5.427-77.986 38.435l-.004.015-16.973 1.582c-27.308 2.545-49.325 23.451-53.278 50.591l-1.165 7.999h113.243l80.403 53.619 79.076-53.619h114.571z" fill="#ffb5ec"/><path d="m424.719 206.961c-4.307-80.895-101.019-120.891-159.939-65.294-.43.406-.851.81-1.263 1.212-8.381 8.177-21.653 8.177-30.034 0-.41-.4-.83-.803-1.258-1.207-58.758-55.45-155.414-15.838-159.919 64.827-.179 3.199-.272 6.42-.278 9.662-.179 96.699 78.517 176.128 175.214 176.802 98.04.683 177.73-78.586 177.73-176.468 0-3.199-.085-6.378-.253-9.534z" fill="#ffd3bc"/><path d="m206.606 387.904c-60.609-32.734-102.996-107.738-102.996-195.048 0-19.863 2.2-39.085 6.303-57.323-13.874 10.456-25.071 24.74-31.572 42.011-1.945-.296-4.035-.463-6.312-.463-27.52 0-49.83 22.31-49.83 49.83 0 27.521 22.31 49.83 49.83 49.83 3.883 0 7.248-.459 10.192-1.299 19.786 55.385 66.584 98.26 124.385 112.462z" fill="#ffbe9c"/><g><g><g><ellipse cx="142.662" cy="257.405" fill="#ff9db0" rx="39.052" ry="31.099"/></g><g><ellipse cx="354.338" cy="257.405" fill="#ff9db0" rx="39.052" ry="31.099"/></g></g></g><g><path d="m331.578 234.968c-4.143 0-7.5-3.358-7.5-7.5v-15.964c0-4.142 3.357-7.5 7.5-7.5s7.5 3.358 7.5 7.5v15.964c0 4.142-3.357 7.5-7.5 7.5z" fill="#423e4f"/></g><g><path d="m248.5 244.471c-10.563 0-20.607-4.575-27.558-12.551-2.722-3.123-2.396-7.86.728-10.582 3.122-2.721 7.86-2.396 10.581.727 4.102 4.707 10.023 7.406 16.249 7.406 6.225 0 12.147-2.699 16.249-7.406 2.722-3.123 7.46-3.448 10.582-.726 3.123 2.721 3.448 7.459.727 10.582-6.952 7.976-16.996 12.55-27.558 12.55z" fill="#423e4f"/></g><path d="m180.865 15.11c-24.524.962-47.047 17.17-54.592 42.263l-.004.015-16.973 1.582c-27.308 2.545-49.325 23.451-53.278 50.591l-1.165 7.999h59.817c12.878-42.213 36.263-78.001 66.195-102.45z" fill="#ffa2e7"/><g><path d="m165.421 234.968c-4.143 0-7.5-3.358-7.5-7.5v-15.964c0-4.142 3.357-7.5 7.5-7.5s7.5 3.358 7.5 7.5v15.964c0 4.142-3.357 7.5-7.5 7.5z" fill="#423e4f"/></g></g></svg>