<svg id="Capa_1" enable-background="new 0 0 497 497" height="512" viewBox="0 0 497 497" width="512" xmlns="http://www.w3.org/2000/svg"><g><path d="m215.631 497h65.738l23.686-31.738v-60.679l-23.686-64.637h-65.738s-23.686 60.783-23.686 64.637 0 60.679 0 60.679z" fill="#fbe29f"/><path d="m323.375 497h75.425c0-20.01-2.93-37.55-7.48-52.74-4.708-15.718-11.156-28.891-17.896-39.676h-68.369v60.679z" fill="#00d1b3"/><path d="m361.917 339.946s43.155 48.371-8.088 82.09c-25.036 16.474-30.454 44.116-30.454 74.087v.877h-42.006v-157.054z" fill="#50e1cd"/><path d="m337.244 459.8-25.928-41.064c-4.423-7.005-2.329-16.269 4.676-20.691s16.269-2.329 20.691 4.676l25.928 41.064c4.423 7.005 2.329 16.269-4.676 20.691-7.003 4.422-16.268 2.329-20.691-4.676z" fill="#fbe29f"/><path d="m173.625 497c-40.614 0-72.566 0-75.425 0 0-20.01 2.93-37.55 7.48-52.74 4.708-15.718 11.156-28.891 17.896-39.676h68.369v60.679z" fill="#00d1b3"/><path d="m135.083 339.946s-43.155 48.371 8.088 82.09c25.036 16.474 30.454 44.116 30.454 74.087v.877h42.006v-157.054z" fill="#50e1cd"/><path d="m159.756 459.8 25.928-41.064c4.423-7.005 2.329-16.269-4.676-20.691s-16.269-2.329-20.691 4.676l-25.928 41.064c-4.423 7.005-2.329 16.269 4.676 20.691 7.003 4.422 16.268 2.329 20.691-4.676z" fill="#fbe29f"/><path d="m395.47 60.55-146.97 32.345-146.97-32.345c37.78-37.42 89.73-60.55 146.97-60.55s109.19 23.13 146.97 60.55z" fill="#5c586f"/><path d="m457.51 209.01h-418.02c0-29.77 6.26-58.11 17.53-83.77l191.48-32.345 191.48 32.345c11.27 25.66 17.53 54 17.53 83.77z" fill="#5c586f"/><path d="m109.01 200.991c0-31.173 6.025-60.76 16.825-87.375l-68.815 11.624c-11.27 25.66-17.53 54-17.53 83.77h69.668c-.089-2.662-.148-5.333-.148-8.019z" fill="#4f4c5f"/><circle cx="421.723" cy="219.24" fill="#c7856a" r="48.913"/><path d="m96.851 125.237c-13.746 24.828-21.574 53.388-21.574 83.776 0 95.668 77.555 173.223 173.223 173.223s173.223-77.554 173.223-173.223c0-30.389-7.828-58.948-21.574-83.776l-151.649-32.342z" fill="#da9d81"/><path d="m239.71.198c-53.755 2.236-102.344 24.858-138.18 60.352l47.392 10.43c22.985-32.909 54.499-57.905 90.788-70.782z" fill="#4f4c5f"/><path d="m184.577 370.055c-45.854-38.361-75.567-99.804-75.567-169.064 0-28.875 5.168-56.389 14.513-81.442l-26.672 5.688c-7.765 14.024-13.638 29.24-17.281 45.303-1.359-.134-2.78-.213-4.292-.213-27.014 0-48.913 21.899-48.913 48.913s21.899 48.913 48.913 48.913c3.781 0 7.053-.443 9.914-1.255 16.684 47.069 53.139 84.784 99.385 103.157z" fill="#c7856a"/><path d="m439.98 125.24h-382.96c10.68-24.33 25.87-46.25 44.51-64.69h293.94c18.64 18.44 33.83 40.36 44.51 64.69z" fill="#d8d8d8"/><path d="m156.716 60.55h-55.186c-18.64 18.44-33.83 40.36-44.51 64.69h64.474c8.224-23.998 20.239-45.87 35.222-64.69z" fill="#cacac8"/><path d="m70.002 100.395h356.996c-3.146-5.151-6.507-10.155-10.073-15h-336.85c-3.566 4.845-6.927 9.849-10.073 15z" fill="#ff889e"/><path d="m139.714 85.395h-59.639c-3.567 4.845-6.928 9.849-10.073 15h61.702c2.486-5.136 5.165-10.135 8.01-15z" fill="#ff748f"/><g><g><g><ellipse cx="142.831" cy="246.289" fill="#fff" rx="38.99" ry="31.05"/></g><g><ellipse cx="354.169" cy="246.289" fill="#fff" rx="38.99" ry="31.05"/></g></g></g><g><g><path d="m165.554 223.9c-4.142 0-7.5-3.357-7.5-7.5v-15.938c0-4.143 3.358-7.5 7.5-7.5s7.5 3.357 7.5 7.5v15.938c0 4.142-3.358 7.5-7.5 7.5z" fill="#423e4f"/></g><g><path d="m331.446 223.9c-4.142 0-7.5-3.357-7.5-7.5v-15.938c0-4.143 3.358-7.5 7.5-7.5s7.5 3.357 7.5 7.5v15.938c0 4.142-3.358 7.5-7.5 7.5z" fill="#423e4f"/></g><g><path d="m248.5 233.388c-10.548 0-20.579-4.568-27.522-12.534-2.722-3.122-2.396-7.86.726-10.581 3.122-2.723 7.86-2.398 10.582.726 4.093 4.696 10.003 7.39 16.214 7.39s12.122-2.693 16.215-7.39c2.721-3.123 7.459-3.449 10.582-.726 3.123 2.721 3.448 7.459.726 10.581-6.944 7.965-16.975 12.534-27.523 12.534z" fill="#423e4f"/></g></g></g></svg>