<svg id="Capa_1" enable-background="new 0 0 497 497" height="512" viewBox="0 0 497 497" width="512" xmlns="http://www.w3.org/2000/svg"><g><path d="m275.605 497h-55.783l-23.356-50.507 23.356-70.426h55.783l23.356 67.738z" fill="#fbe29f"/><path d="m124.412 449.07c14.758-49.967 48.699-73.003 48.699-73.003h46.712v120.933h-49.198z" fill="#ff889e"/><path d="m371.015 449.07c-14.758-49.967-48.699-73.003-48.699-73.003h-46.712v120.933h49.198z" fill="#ff889e"/><path d="m56.732 107.067c0-41.101 5.074-107.067 191.768-107.067s191.768 65.966 191.768 107.067z" fill="#9ae0eb"/><path d="m433.963 127.448s108.725 185.41-61.361 210.775h-248.204c-170.087-25.365-61.361-210.775-61.361-210.775l185.464-63.534z" fill="#ff889e"/><path d="m173.11 376.067v17.702c0 15.817 12.822 28.639 28.639 28.639h18.072v-46.341z" fill="#9ae0eb"/><path d="m322.316 376.067v17.702c0 15.817-12.822 28.639-28.639 28.639h-18.072v-46.341z" fill="#9ae0eb"/><path d="m115.976 217.474c0-45.016 4.227-82.125 12.744-112.527l-65.684 22.501s-108.725 185.41 61.361 210.775h22.014c-19.322-35.329-30.435-76.621-30.435-120.749z" fill="#ff748f"/><g fill="#ffd8d2"><path d="m412.862 212.114c-1.628-15.849-15.278-27.789-31.208-27.529-32.011.524-78.42-5.064-116.69-34.926-9.665-7.542-23.264-7.542-32.929 0-38.267 29.86-84.672 35.448-116.683 34.926-16.161-.264-29.682 12.041-31.275 28.125-.638 6.441-.905 12.991-.78 19.628 1.693 89.333 75.067 161.622 164.416 162.038 91.616.427 166.019-73.713 166.019-165.231.001-5.75-.295-11.432-.87-17.031z"/><path d="m170.624 449.07v47.93h-52.923c0-18.113 2.616-34.06 6.71-47.93z"/><path d="m324.803 449.07v47.93h52.923c0-18.113-2.616-34.06-6.71-47.93z"/></g><path d="m213.468.859c-152.309 7.847-156.736 67.852-156.736 106.208h71.405c14.757-54.488 43.04-87.733 85.331-106.208z" fill="#64d1e1"/><path d="m450.385 89.511c-52.079-24.083-124.038-37.648-201.885-37.648-77.846 0-149.804 13.565-201.882 37.647-11.507 5.321-15.851 19.465-9.451 30.409l5.981 10.227c5.604 9.582 17.541 13.297 27.642 8.695 44.441-20.249 109.021-32.058 177.71-32.058 68.69 0 133.271 11.809 177.713 32.058 10.101 4.602 22.038.887 27.642-8.695l5.981-10.227c6.4-10.943 2.056-25.087-9.451-30.408z" fill="#fbe29f"/><path d="m147.07 60.035c-37.866 6.385-72.108 16.368-100.452 29.475-11.507 5.321-15.851 19.465-9.451 30.409l5.981 10.227c5.604 9.582 17.541 13.297 27.642 8.695 15.722-7.164 33.975-13.265 54.029-18.166 5.144-23.715 12.557-43.772 22.251-60.64z" fill="#fccb88"/><path d="m115.976 217.474c0-11.463.274-22.415.822-32.874-.481-.005-.97-.007-1.445-.014-16.161-.264-29.682 12.041-31.276 28.125-.638 6.441-.905 12.99-.78 19.628 1.171 61.821 36.676 115.47 88.041 142.796-34.415-41.796-55.362-97.057-55.362-157.661z" fill="#ffcabd"/><g><g><g><ellipse cx="146.739" cy="272.112" fill="#ff9db0" rx="37.548" ry="29.901"/></g><g><ellipse cx="350.261" cy="272.112" fill="#ff9db0" rx="37.548" ry="29.901"/></g></g></g><g><path d="m168.622 250.828c-4.142 0-7.5-3.358-7.5-7.5v-15.349c0-4.142 3.358-7.5 7.5-7.5s7.5 3.358 7.5 7.5v15.349c0 4.142-3.358 7.5-7.5 7.5z" fill="#423e4f"/></g><g><path d="m328.378 250.828c-4.142 0-7.5-3.358-7.5-7.5v-15.349c0-4.142 3.358-7.5 7.5-7.5s7.5 3.358 7.5 7.5v15.349c0 4.142-3.358 7.5-7.5 7.5z" fill="#423e4f"/></g><g><path d="m248.5 259.965c-10.238 0-19.975-4.435-26.713-12.167-2.721-3.123-2.396-7.86.727-10.582 3.123-2.721 7.86-2.396 10.582.727 3.889 4.462 9.504 7.022 15.405 7.022s11.516-2.56 15.405-7.022c2.721-3.123 7.458-3.448 10.582-.727 3.123 2.722 3.448 7.459.727 10.582-6.74 7.733-16.477 12.167-26.715 12.167z" fill="#423e4f"/></g></g></svg>