<svg id="Capa_1" enable-background="new 0 0 497 497" height="512" viewBox="0 0 497 497" width="512" xmlns="http://www.w3.org/2000/svg"><g><path d="m318.651 497h-140.302l-52.783-44.698c12.627-38.818 38.219-57.384 38.219-57.384h169.427s25.593 18.566 38.219 57.384z" fill="#b08bd7"/><g><path d="m199.742 394.918h-35.956s-25.593 18.566-38.219 57.384l23.738 20.102c2.753-33.873 22.512-62.749 50.437-77.486z" fill="#a47cd1"/></g><path d="m178.349 452.302v44.698h-59.66c0-17.108 2.745-31.991 6.877-44.698z" fill="#da9d81"/><path d="m378.31 497h-59.66v-44.698h52.783c4.132 12.707 6.877 27.59 6.877 44.698z" fill="#da9d81"/><path d="m256.121 15.263c12.711-12.711 30.349-17.479 46.764-14.318 7.314 1.408 13.112 7.207 14.521 14.521 3.161 16.415-1.607 34.053-14.318 46.764-15.639 15.639-38.736 19.254-57.838 10.872-8.383-19.103-4.768-42.2 10.871-57.839z" fill="#00d1b3"/><g fill="#50e1cd"><path d="m240.879 15.263c-12.711-12.711-30.349-17.479-46.764-14.318-7.314 1.408-13.112 7.207-14.521 14.521-3.161 16.415 1.607 34.053 14.318 46.764 15.639 15.639 38.736 19.254 57.838 10.872 8.383-19.103 4.768-42.2-10.871-57.839z"/><path d="m433.109 236.491c0 3.494-.1 6.967-.29 10.411l-184.32 22.27-184.32-22.27c-.19-3.444-.29-6.917-.29-10.411 0-29.755 7.077-57.903 19.634-82.827l164.977-23.028 164.975 23.027c12.557 24.925 19.634 53.073 19.634 82.828z"/><path d="m432.82 246.902c-4.372 78.355-57.843 143.834-130.08 166.073l-54.24-23.417-54.24 23.417c-72.237-22.239-125.708-87.718-130.08-166.073z"/></g><g><circle cx="396.683" cy="246.899" fill="#c7856a" r="44.236"/></g><path d="m125.603 153.671c-15.965 23.644-25.287 52.143-25.287 82.819 0 81.839 66.344 148.183 148.183 148.183s148.183-66.344 148.183-148.183c0-30.676-9.322-59.175-25.286-82.819z" fill="#da9d81"/><path d="m275.36 358.006h-53.72c-15.122 0-27.381 12.259-27.381 27.381v27.589c17.154 5.288 35.37 8.129 54.241 8.129s37.087-2.842 54.241-8.129v-27.589c0-15.122-12.259-27.381-27.381-27.381z" fill="#fbe29f"/><path d="m413.472 153.666h-329.944c30.405-60.32 92.932-101.79 164.972-101.79s134.568 41.47 164.972 101.79z" fill="#fbe29f"/><g fill="#423e4f"><path d="m186.08 85.017c-4.142 0-7.5 3.357-7.5 7.5v11.979c0 4.143 3.358 7.5 7.5 7.5s7.5-3.357 7.5-7.5v-11.979c0-4.143-3.358-7.5-7.5-7.5z"/><path d="m310.747 85.017c-4.142 0-7.5 3.357-7.5 7.5v11.979c0 4.143 3.358 7.5 7.5 7.5s7.5-3.357 7.5-7.5v-11.979c0-4.143-3.358-7.5-7.5-7.5z"/><path d="m277.454 104.137c-4.142 0-7.5 3.357-7.5 7.5 0 3.82-3.108 6.929-6.929 6.929-3.82 0-6.929-3.108-6.929-6.929 0-4.143-3.358-7.5-7.5-7.5s-7.5 3.357-7.5 7.5c0 3.82-3.108 6.929-6.929 6.929-3.82 0-6.929-3.108-6.929-6.929 0-4.143-3.358-7.5-7.5-7.5s-7.5 3.357-7.5 7.5c0 12.092 9.837 21.929 21.929 21.929 5.522 0 10.57-2.056 14.429-5.437 3.859 3.381 8.907 5.437 14.429 5.437 12.092 0 21.929-9.837 21.929-21.929 0-4.143-3.358-7.5-7.5-7.5z"/></g><g><g><path d="m160.384 255.035c-4.142 0-7.5-3.357-7.5-7.5v-16.932c0-4.143 3.358-7.5 7.5-7.5s7.5 3.357 7.5 7.5v16.932c0 4.143-3.358 7.5-7.5 7.5z" fill="#423e4f"/></g><g><path d="m336.616 255.035c-4.142 0-7.5-3.357-7.5-7.5v-16.932c0-4.143 3.358-7.5 7.5-7.5s7.5 3.357 7.5 7.5v16.932c0 4.143-3.358 7.5-7.5 7.5z" fill="#423e4f"/></g><g><path d="m248.5 265.115c-11.071 0-21.599-4.795-28.885-13.155-2.721-3.123-2.396-7.86.727-10.582 3.123-2.721 7.86-2.396 10.582.727 4.437 5.091 10.843 8.011 17.577 8.011s13.141-2.92 17.578-8.011c2.722-3.123 7.458-3.447 10.582-.727 3.123 2.722 3.448 7.459.726 10.582-7.288 8.36-17.816 13.155-28.887 13.155z" fill="#423e4f"/></g></g><path d="m195.612 374.944c-40.349-38.611-65.81-95.11-65.81-158.069 0-22.022 3.119-43.251 8.895-63.205h-13.094c-9.943 14.726-17.306 31.337-21.449 49.182-1.21-.12-2.48-.19-3.838-.19-24.431 0-44.236 19.805-44.236 44.236s19.805 44.236 44.236 44.236c3.866 0 7.112-.499 9.844-1.431 15.068 39.138 46.268 70.264 85.452 85.241z" fill="#c7856a"/><path d="m194.41 59.964c-48.416 14.864-88.418 49.135-110.883 93.702h55.171c10.575-36.523 30.07-68.754 55.712-93.702z" fill="#fccb88"/><path d="m148.969 480.548c0-9.83 1.432-19.314 4.088-28.246h-27.49c-4.132 12.707-6.877 27.589-6.877 44.698h31.643c-.893-5.346-1.364-10.842-1.364-16.452z" fill="#c7856a"/></g></svg>