<svg id="Capa_1" enable-background="new 0 0 497 497" height="512" viewBox="0 0 497 497" width="512" xmlns="http://www.w3.org/2000/svg"><g><path d="m320.079 363.836h-143.158s-66.294 35.848-66.294 133.164h56.34l81.533-22.365 81.533 22.365h56.34c0-97.317-66.294-133.164-66.294-133.164z" fill="#50e1cd"/><path d="m39.462 174.553v100.195c0 32.077 26.003 58.08 58.08 58.08h301.916c32.077 0 58.08-26.003 58.08-58.08v-100.195z" fill="#ff889e"/><path d="m300.031 420.741h-103.062c-16.57 0-30.002 13.432-30.002 30.002v46.257h163.066v-46.257c0-16.569-13.432-30.002-30.002-30.002z" fill="#ff889e"/><path d="m196.684 444.256c0-8.181 1.301-16.073 3.699-23.515h-3.414c-16.57 0-30.002 13.433-30.002 30.002v46.257h50.533c-12.959-14.15-20.816-32.576-20.816-52.744z" fill="#ff748f"/><path d="m176.921 363.836v56.906c0 12.406 10.057 22.463 22.463 22.463 12.406 0 22.463-10.057 22.463-22.463v-56.906z" fill="#fff"/><path d="m320.079 363.836v56.906c0 12.406-10.057 22.463-22.463 22.463-12.406 0-22.463-10.057-22.463-22.463v-56.906z" fill="#fff"/><path d="m108.413 194.938c0-6.873.295-13.668.842-20.385h-69.793v100.195c0 32.077 26.003 58.08 58.08 58.08h53.612c-26.793-38.159-42.741-85.976-42.741-137.89z" fill="#ff748f"/><circle cx="248.5" cy="210.801" fill="#ffd8d2" r="168.919"/><path d="m108.413 194.938c0-38.924 8.961-75.549 24.738-107.525-32.961 30.827-53.57 74.697-53.57 123.388 0 68.117 40.323 126.808 98.398 153.528-42.658-41.412-69.566-101.946-69.566-169.391z" fill="#ffcabd"/><path d="m39.571 136.962c11.014-25.239 26.476-48.099 45.408-67.613 1.235-1.259 113.619-41.02 113.619-41.02h124.695l88.728 41.02c18.932 19.514 34.394 42.374 45.408 67.613l-30.449 32.128h-359.515z" fill="#00d1b3"/><path d="m163.818 40.675c-33.12 11.789-78.06 27.88-78.839 28.674-18.932 19.514-34.394 42.374-45.408 67.613l27.894 32.128h42.296c5.121-49.391 24.732-93.945 54.057-128.415z" fill="#00c4a2"/><path d="m427.379 205.926h-357.758c-26.725 0-45.46-26.31-36.815-51.591 2.016-5.902 4.271-11.69 6.764-17.363v-.01c6.442-3.138 13.425-4.707 20.418-4.707 8.136 0 16.282 2.13 23.556 6.39 7.284 4.26 15.42 6.39 23.566 6.39s16.282-2.13 23.566-6.39 15.42-6.39 23.566-6.39 16.283 2.13 23.566 6.39c7.274 4.26 15.42 6.39 23.556 6.39 8.146 0 16.293-2.13 23.566-6.39 7.274-4.26 15.42-6.39 23.566-6.39s16.293 2.13 23.566 6.39c7.274 4.26 15.42 6.39 23.566 6.39 8.136 0 16.283-2.13 23.556-6.39 7.284-4.26 15.42-6.39 23.566-6.39s16.282 2.13 23.566 6.39 15.42 6.39 23.566 6.39 16.282-2.13 23.566-6.39c13.518-7.918 30.03-8.479 43.974-1.683v.01c2.494 5.673 4.749 11.461 6.764 17.363 8.653 25.281-10.082 51.591-36.807 51.591z" fill="#50e1cd"/><g><g><path d="m163.061 264.604c-4.142 0-7.5-3.357-7.5-7.5v-16.418c0-4.143 3.358-7.5 7.5-7.5s7.5 3.357 7.5 7.5v16.418c0 4.143-3.358 7.5-7.5 7.5z" fill="#423e4f"/></g><g><path d="m333.94 264.604c-4.142 0-7.5-3.357-7.5-7.5v-16.418c0-4.143 3.358-7.5 7.5-7.5s7.5 3.357 7.5 7.5v16.418c0 4.143-3.358 7.5-7.5 7.5z" fill="#423e4f"/></g><g><path d="m248.5 274.378c-10.8 0-21.071-4.678-28.18-12.834-2.722-3.123-2.396-7.86.726-10.582 3.122-2.721 7.86-2.396 10.582.727 4.259 4.887 10.409 7.689 16.872 7.689s12.612-2.803 16.872-7.689c2.722-3.124 7.458-3.448 10.582-.727 3.123 2.722 3.448 7.459.726 10.582-7.109 8.156-17.38 12.834-28.18 12.834z" fill="#423e4f"/></g></g><path d="m412.021 69.349c-6.91 3.73-14.516 5.59-22.133 5.59-8.146 0-16.282-2.13-23.566-6.39s-15.42-6.39-23.566-6.39-16.283 2.13-23.566 6.39c-7.274 4.26-15.42 6.39-23.556 6.39-8.146 0-16.293-2.13-23.566-6.39-7.274-4.26-15.42-6.39-23.566-6.39s-16.293 2.13-23.566 6.39c-7.274 4.26-15.42 6.39-23.566 6.39-8.136 0-16.283-2.13-23.556-6.39-7.284-4.26-15.42-6.39-23.566-6.39s-16.282 2.13-23.566 6.39-15.42 6.39-23.566 6.39c-7.617 0-15.223-1.86-22.133-5.59 41.424-42.748 99.416-69.349 163.517-69.349s122.093 26.601 163.521 69.349z" fill="#50e1cd"/><g fill="#00d1b3"><path d="m108.413 194.938c0-17.31 1.778-34.164 5.134-50.358-2.135.297-4.284.456-6.435.456-8.146 0-16.282-2.13-23.566-6.39-7.274-4.26-15.42-6.39-23.556-6.39-6.993 0-13.976 1.569-20.418 4.707v.01c-2.494 5.673-4.749 11.461-6.764 17.363-8.645 25.281 10.09 51.591 36.815 51.591h39.037c-.16-3.642-.247-7.305-.247-10.989z"/><path d="m147.312 62.696c15.156-23.032 34.158-42.811 55.985-58.178-45.927 9.28-86.891 32.402-118.318 64.831 6.91 3.73 14.516 5.59 22.133 5.59 8.146 0 16.282-2.13 23.566-6.39 5.211-3.048 10.86-4.986 16.634-5.853z"/></g></g></svg>