<svg id="Capa_1" enable-background="new 0 0 497 497" height="512" viewBox="0 0 497 497" width="512" xmlns="http://www.w3.org/2000/svg"><g><path d="m248.5 358.267 26.329 67.628-26.329 59.38h-69.759l-48.937-55.491c16.046-49.007 49.087-71.517 49.087-71.517z" fill="#b08bd7"/><path d="m367.196 429.784-48.937 55.491h-69.759v-127.008h69.609s33.041 22.51 49.087 71.517z" fill="#a47cd1"/><path d="m339.72 44.165s58.292-46.901 113.01 6.396 72.638 162.732-28.446 162.732z" fill="#6a647f"/><path d="m157.28 44.165s-58.292-46.901-113.01 6.396-72.638 162.732 28.446 162.732z" fill="#6a647f"/><path d="m241.363 360.923c2.81 0 5.589.15 8.337.427l-1.2-3.082h-69.609s-33.041 22.51-49.087 71.517l17.413 19.745c9.659-50.712 48.139-88.607 94.146-88.607z" fill="#a47cd1"/><ellipse cx="248.5" cy="204.041" fill="#e7886e" rx="192.316" ry="192.316" transform="matrix(.707 -.707 .707 .707 -71.495 235.478)"/><path d="m248.5 340.429c-73.68 0-133.623-31.827-133.623-105.507s59.943-77.392 133.623-77.392 133.623 3.713 133.623 77.392-59.943 105.507-133.623 105.507z" fill="#ffd3bc"/><g><g><path d="m164.847 252.919c-4.142 0-7.5-3.357-7.5-7.5v-16.074c0-4.143 3.358-7.5 7.5-7.5s7.5 3.357 7.5 7.5v16.074c0 4.142-3.358 7.5-7.5 7.5z" fill="#423e4f"/></g><g><path d="m332.153 252.919c-4.142 0-7.5-3.357-7.5-7.5v-16.074c0-4.143 3.358-7.5 7.5-7.5s7.5 3.357 7.5 7.5v16.074c0 4.142-3.358 7.5-7.5 7.5z" fill="#423e4f"/></g><g><path d="m248.5 262.488c-10.62 0-20.719-4.6-27.708-12.62-2.721-3.123-2.396-7.86.727-10.582 3.123-2.721 7.86-2.396 10.582.727 4.14 4.751 10.118 7.476 16.4 7.476 6.283 0 12.261-2.725 16.401-7.476 2.721-3.124 7.458-3.448 10.582-.727 3.123 2.722 3.448 7.459.726 10.582-6.991 8.02-17.09 12.62-27.71 12.62z" fill="#423e4f"/></g></g><path d="m99.804 216.604c0-94.165 52.112-174.192 124.687-203.384-94.754 11.853-168.307 92.906-168.307 190.82 0 73.74 41.725 137.909 102.798 170.167-36.399-39.293-59.178-95.356-59.178-157.603z" fill="#e27858"/><g fill="#fff"><ellipse cx="152.037" cy="114.734" rx="28.345" ry="35.593" transform="matrix(.002 -1 1 .002 36.97 266.519)"/><ellipse cx="344.964" cy="115.156" rx="28.345" ry="35.593" transform="matrix(.002 -1 1 .002 229.052 459.867)"/></g><g fill="#423e4f"><path d="m173.123 71.657c-4.142 0-7.5 3.357-7.5 7.5v14.465c0 4.143 3.358 7.5 7.5 7.5s7.5-3.357 7.5-7.5v-14.465c0-4.143-3.358-7.5-7.5-7.5z"/><path d="m323.67 71.657c-4.142 0-7.5 3.357-7.5 7.5v14.465c0 4.143 3.358 7.5 7.5 7.5s7.5-3.357 7.5-7.5v-14.465c0-4.143-3.358-7.5-7.5-7.5z"/><path d="m283.464 94.746c-4.142 0-7.5 3.357-7.5 7.5 0 5.473-4.452 9.925-9.924 9.925s-9.924-4.452-9.924-9.925c0-4.143-3.358-7.5-7.5-7.5s-7.5 3.357-7.5 7.5c0 5.473-4.452 9.925-9.924 9.925s-9.924-4.452-9.924-9.925c0-4.143-3.358-7.5-7.5-7.5s-7.5 3.357-7.5 7.5c0 13.743 11.181 24.925 24.924 24.925 6.777 0 12.927-2.722 17.424-7.126 4.497 4.404 10.648 7.126 17.424 7.126 13.743 0 24.924-11.182 24.924-24.925 0-4.143-3.358-7.5-7.5-7.5z"/></g><path d="m178.741 429.784v55.491h-57.489c0-21.311 3.397-39.765 8.552-55.491z" fill="#ffd3bc"/><path d="m375.748 485.275h-57.489v-55.491h48.937c5.155 15.726 8.552 34.18 8.552 55.491z" fill="#ffd3bc"/><path d="m144.877 474.467c0-15.865 2.769-30.968 7.763-44.683h-22.836c-5.156 15.726-8.552 34.18-8.552 55.491h24.063c-.286-3.558-.438-7.162-.438-10.808z" fill="#ffbe9c"/></g></svg>