<svg id="Capa_1" enable-background="new 0 0 497 497" height="512" viewBox="0 0 497 497" width="512" xmlns="http://www.w3.org/2000/svg"><g><path d="m397.277.845c14.992 1.571 27.369 12.115 31.483 26.617 18.67 65.816-22.912 120.111-22.912 120.111l-116.248-110.527c36.093-36.737 81.038-38.992 107.677-36.201z" fill="#6a647f"/><path d="m387.775 35.988c.022.001.044.003.066.004 3.732.216 6.882 2.907 7.681 6.558 9.538 43.578-15.66 79.732-18.173 83.197l-62.145-63.545c23.55-23.972 52.903-27.341 72.571-26.214z" fill="#ff9db0"/><path d="m42.427.845c-14.993 1.572-27.37 12.116-31.484 26.618-18.67 65.816 22.912 120.111 22.912 120.111l116.248-110.528c-36.092-36.737-81.038-38.992-107.676-36.201z" fill="#5c586f"/><path d="m51.929 35.988c-.022.001-.044.003-.066.004-3.732.216-6.882 2.907-7.681 6.558-9.538 43.578 15.66 79.732 18.173 83.197l62.145-63.546c-23.55-23.971-52.903-27.34-72.571-26.213z" fill="#ff9db0"/><path d="m12.987 211.974c0-114.066 92.799-206.865 206.865-206.865s206.866 92.799 206.866 206.865z" fill="#fccb88"/><path d="m420.734 291.331c-1.524-14.523-7.734-29.096.856-40.905h-403.476c8.591 11.809 2.38 26.382.856 40.905l-.01.096c-2.675 25.483 11.389 49.783 34.816 60.16 13.415 5.942 24.138 16.665 30.08 30.08 10.377 23.428 34.677 37.491 60.159 34.816l.097-.01c14.523-1.524 29.096 2.387 40.905 10.977l.094.068c20.71 15.066 48.771 15.066 69.481 0l.094-.069c11.809-8.591 26.382-12.501 40.905-10.977l.096.01c25.483 2.675 49.783-11.389 60.16-34.816 5.942-13.415 16.665-24.138 30.08-30.079h.001c23.428-10.377 37.491-34.677 34.817-60.159z" fill="#fccb88"/><g><circle cx="391.294" cy="222.094" fill="#ffcabd" r="48.41"/></g><path d="m92.39 250.426h-74.276c8.591 11.809 2.38 26.382.856 40.905l-.01.096c-2.675 25.483 11.389 49.783 34.816 60.16 13.415 5.942 24.138 16.665 30.08 30.08 10.377 23.427 34.677 37.491 60.159 34.816l.097-.01c14.523-1.524 29.096 2.387 40.905 10.977l.094.068c19.537 14.213 45.613 15.011 65.892 2.408-77.439-14.54-139.831-86.24-158.613-179.5z" fill="#fbc072"/><path d="m348.813 497c0-88.926-58.416-128.724-58.416-128.724h-141.089s-58.416 39.798-58.416 128.724z" fill="#ff889e"/><path d="m149.308 368.276s7.206 58.585 51.743 86.896c11.514 7.319 26.088 7.319 37.602 0 44.537-28.311 51.743-86.896 51.743-86.896z" fill="#6a647f"/><path d="m86.574 191.593c0-44.646 10.431-114.794 47.682-167.929-71.472 32.617-121.269 104.755-121.269 188.309h74.282c-.452-6.72-.695-13.514-.695-20.38z" fill="#fbc072"/><path d="m364.099 119.297c-3.205-4.978-10.033-6.295-14.759-2.729-.03.023-.061.046-.091.069-10.923 8.309-26.048 8.309-36.971 0-10.923-8.309-26.048-8.309-36.971 0s-26.048 8.309-36.971 0c-10.923-8.309-26.048-8.309-36.971 0-10.923 8.309-26.048 8.309-36.971 0s-26.048-8.309-36.971 0c-10.923 8.309-26.048 8.309-36.971 0-.03-.023-.059-.045-.089-.068-4.731-3.571-11.562-2.242-14.77 2.742-17.2 26.719-27.185 58.522-27.186 92.66 0 94.692 75.971 171.02 170.662 171.441 95.043.423 172.222-76.496 172.222-171.44.003-34.144-9.986-65.952-27.192-92.675z" fill="#ffd8d2"/><g><path d="m134.915 497v-39.686c0-4.143 3.358-7.5 7.5-7.5s7.5 3.357 7.5 7.5v39.686z" fill="#ff748f"/></g><g><path d="m289.789 497v-39.686c0-4.143 3.358-7.5 7.5-7.5s7.5 3.357 7.5 7.5v39.686z" fill="#ff748f"/></g><path d="m148.079 367.821c-37.839-43.997-61.505-106.665-61.505-176.228 0-20.209 2.139-45.644 7.932-72.36-1.399-.751-2.756-1.611-4.051-2.596-.03-.023-.06-.045-.089-.068-4.731-3.571-11.562-2.242-14.77 2.742-10.605 16.474-18.462 34.883-22.932 54.578-1.367-.129-2.778-.206-4.253-.206-26.736 0-48.41 21.674-48.41 48.41s21.674 48.41 48.41 48.41c3.577 0 6.822-.4 9.775-1.136 15.441 43.754 48.073 79.257 89.893 98.454z" fill="#ffcabd"/><g><g><g><ellipse cx="113.331" cy="245.353" fill="#ff9db0" rx="39.304" ry="31.3"/></g><g><ellipse cx="326.373" cy="245.353" fill="#ff9db0" rx="39.304" ry="31.3"/></g></g></g><g><g><path d="m136.237 222.722c-4.142 0-7.5-3.357-7.5-7.5v-16.066c0-4.143 3.358-7.5 7.5-7.5s7.5 3.357 7.5 7.5v16.066c0 4.143-3.358 7.5-7.5 7.5z" fill="#423e4f"/></g><g><path d="m303.466 222.722c-4.142 0-7.5-3.357-7.5-7.5v-16.066c0-4.143 3.358-7.5 7.5-7.5s7.5 3.357 7.5 7.5v16.066c0 4.143-3.358 7.5-7.5 7.5z" fill="#423e4f"/></g><g><path d="m219.852 232.287c-10.616 0-20.712-4.599-27.699-12.615-2.721-3.123-2.396-7.86.727-10.582 3.122-2.721 7.86-2.395 10.582.727 4.137 4.748 10.111 7.471 16.39 7.471s12.253-2.723 16.391-7.471c2.721-3.123 7.458-3.448 10.582-.727 3.123 2.722 3.448 7.459.726 10.582-6.988 8.018-17.084 12.615-27.699 12.615z" fill="#423e4f"/></g></g></g></svg>